<?xml version="1.0" encoding="UTF-8"?>
<svg version="1.1" xmlns="http://www.w3.org/2000/svg" width="640" height="640">
<path d="M0 0 C0.77988281 0.47566406 1.55976563 0.95132812 2.36328125 1.44140625 C14.04989478 8.84898339 14.04989478 8.84898339 18 14 C18.0703125 16.46484375 18.0703125 16.46484375 17 19 C14.671875 21.28125 14.671875 21.28125 11.75 23.5 C8.73084312 25.8174069 5.95869424 28.0423205 3.296875 30.76953125 C1 33 1 33 -1.5 33.1875 C-4.35623025 31.83079063 -5.66403527 30.08978196 -7.5703125 27.62109375 C-13.13182008 21.31501275 -21.81248183 18.50091115 -29.953125 17.71484375 C-41.73393499 17.36746089 -49.86836409 20.68841524 -59 28 C-59.64710938 28.49757813 -60.29421875 28.99515625 -60.9609375 29.5078125 C-63.15604542 31.39375029 -64.80293807 33.09351511 -65.4296875 35.9765625 C-65.56824539 40.08711337 -64.65309656 43.30484298 -63 47 C-61.41936016 54.84754286 -60.9603828 63.18253101 -63.375 70.875 C-63.9972045 73.36381801 -64.22182149 74.49479891 -63.18359375 76.859375 C-56.03489637 86.06510496 -44.96592673 90.58265101 -33.80078125 92.34765625 C-25.80441201 92.92410431 -16.94760923 89.81883972 -10.5 85.21484375 C-8.60799573 83.52708994 -6.79890763 81.78574489 -5 80 C-2.3125 77.9375 -2.3125 77.9375 0 77 C2.5625 77.4375 2.5625 77.4375 5 79 C5.91981445 80.41257219 6.83410596 81.82988685 7.69140625 83.28125 C9.95784983 86.25807141 13.04769188 88.23199012 16.07421875 90.38671875 C18 92 18 92 19 95 C5.41445148 109.46203552 -12.12417368 118.32641397 -31.9765625 118.99609375 C-49.07226027 119.21943422 -63.69455027 112.49903469 -76.71875 101.7578125 C-78.78441431 99.81143766 -78.78441431 99.81143766 -81 99.9375 C-83.18843481 100.97499732 -83.18843481 100.97499732 -85.1875 103.1875 C-95.46204564 113.46204564 -110.56902797 119.0252264 -125.03125 119.1015625 C-142.36920274 118.65657505 -158.07283071 111.68173848 -170.5625 99.6640625 C-177.38555446 92.20681387 -181.62294364 83.46081706 -185 74 C-185.54914063 72.47632813 -185.54914063 72.47632813 -186.109375 70.921875 C-189.91777525 57.06557919 -188.4617605 38.76034523 -182 26 C-179.93362386 22.39888818 -177.64155865 19.198547 -175 16 C-174.39285156 15.23171875 -173.78570312 14.4634375 -173.16015625 13.671875 C-164.33454592 3.05948467 -151.93082521 -5.42081068 -138.12109375 -7.71875 C-122.4219814 -9.13343847 -108.92702326 -8.07486486 -94.625 -1.1875 C-93.95823242 -0.86845703 -93.29146484 -0.54941406 -92.60449219 -0.22070312 C-89.0697418 1.5831403 -86.5093239 3.37189254 -83.8359375 6.32421875 C-81.32702106 9.2872004 -81.32702106 9.2872004 -78.33984375 9.0703125 C-75.8569383 7.93455942 -74.45705296 6.82643331 -72.5625 4.875 C-53.13626388 -12.80505759 -21.6404929 -13.72242108 0 0 Z M-152 29 C-160.12865355 39.84983371 -161.57811232 51.81512612 -160 65 C-157.21829994 74.96593329 -149.98277051 83.60141047 -141.015625 88.6953125 C-132.16386358 92.79335019 -124.17915619 94.7396273 -114.53125 92.0234375 C-108.84538661 89.89775922 -103.93529253 87.49081667 -99 84 C-95.625 82.75 -95.625 82.75 -93 82 C-93.31127516 80.41642541 -93.62407289 78.83315007 -93.9375 77.25 C-94.19853516 75.92742187 -94.19853516 75.92742187 -94.46484375 74.578125 C-94.77121392 73.1021811 -95.10589075 71.63010221 -95.52075195 70.1809082 C-96.54225548 65.53236462 -96.22797102 60.67648363 -96.25 55.9375 C-96.270625 54.85533203 -96.29125 53.77316406 -96.3125 52.65820312 C-96.34364248 46.16888912 -95.66426436 40.61895234 -93.64746094 34.43969727 C-92.96297394 31.86048213 -92.88733535 29.65621725 -93 27 C-94.9490625 26.6596875 -94.9490625 26.6596875 -96.9375 26.3125 C-101.40933279 25.33516548 -104.88513286 23.6133266 -108.76171875 21.21875 C-122.95195662 13.49212833 -141.03726388 17.78132451 -152 29 Z " fill="#3CF2C5" transform="translate(407,266)"/>
<path d="M0 0 C2.57998434 2.22328851 4.49838374 3.98902051 6.01171875 7.0390625 C5.99425255 9.96173948 4.68107176 11.17894659 2.8125 13.375 C0.57934667 16.03456253 -1.33137617 18.48896303 -2.9375 21.5625 C-5 24 -5 24 -8.5625 24.75 C-13.42192747 24.4048444 -17.19820411 21.9911195 -21.2890625 19.5078125 C-29.56645777 14.90395865 -38.94087184 14.72720201 -48.10546875 16.65234375 C-57.41092978 19.71041487 -63.99741041 24.40691555 -68.5 33.1875 C-73.0819173 43.10225994 -73.97840539 55.03782531 -70.9765625 65.6015625 C-65.69055598 76.90368694 -57.58082747 83.74736827 -46 88 C-36.21133549 91.26288817 -26.9522238 88.32261012 -18 84 C-16.83175113 83.28541719 -15.67904202 82.5429489 -14.5625 81.75 C-11.66360727 79.77026838 -9.46237694 79.32975018 -6 79 C-5.505 77.515 -5.505 77.515 -5 76 C-4.505 77.11375 -4.01 78.2275 -3.5 79.375 C-0.79221699 84.84943087 3.07920724 89.3559542 7 94 C6.01 94.495 6.01 94.495 5 95 C4.72929687 95.763125 4.45859375 96.52625 4.1796875 97.3125 C1.2280237 104.03682019 -7.371777 107.95091703 -13.8125 110.8125 C-30.01346585 116.96344585 -45.90500417 118.03887818 -62 111 C-79.41559513 103.11052558 -89.85080096 91.48129729 -96.95703125 73.921875 C-97.30121094 72.95765625 -97.64539063 71.9934375 -98 71 C-98.54914063 69.47632813 -98.54914063 69.47632813 -99.109375 67.921875 C-102.91777525 54.06557919 -101.4617605 35.76034523 -95 23 C-92.93362386 19.39888818 -90.64155865 16.198547 -88 13 C-87.39285156 12.23171875 -86.78570312 11.4634375 -86.16015625 10.671875 C-77.33454592 0.05948467 -64.93082521 -8.42081068 -51.12109375 -10.71875 C-32.47945019 -12.39859773 -16.00599045 -10.25148833 0 0 Z " fill="#0059F4" transform="translate(320,269)"/>
<path d="M0 0 C0.77988281 0.47566406 1.55976563 0.95132812 2.36328125 1.44140625 C14.04989478 8.84898339 14.04989478 8.84898339 18 14 C18.0703125 16.46484375 18.0703125 16.46484375 17 19 C14.671875 21.28125 14.671875 21.28125 11.75 23.5 C8.73084312 25.8174069 5.95869424 28.0423205 3.296875 30.76953125 C1 33 1 33 -1.5 33.1875 C-4.35623025 31.83079063 -5.66403527 30.08978196 -7.5703125 27.62109375 C-13.13182008 21.31501275 -21.81248183 18.50091115 -29.953125 17.71484375 C-37.41630759 17.49477555 -44.28208011 18.64104006 -51 22 C-52.67654729 21.72057545 -54.34608154 21.39171753 -56 21 C-56 21.99 -56 22.98 -56 24 C-56.99 24 -57.98 24 -59 24 C-59 24.66 -59 25.32 -59 26 C-59.78375 26.45375 -60.5675 26.9075 -61.375 27.375 C-64.11372127 28.74045692 -64.11372127 28.74045692 -65 31.125 C-65.33 31.74375 -65.66 32.3625 -66 33 C-68.625 33.75 -68.625 33.75 -71 34 C-71.33 34.99 -71.66 35.98 -72 37 C-73.77734375 38.16796875 -73.77734375 38.16796875 -75.9375 39.1875 C-76.64777344 39.53167969 -77.35804688 39.87585938 -78.08984375 40.23046875 C-80 41 -80 41 -82 41 C-82 41.66 -82 42.32 -82 43 C-86.455 43.495 -86.455 43.495 -91 44 C-91.66 43.01 -92.32 42.02 -93 41 C-93.66 41 -94.32 41 -95 41 C-95 50.9 -95 60.8 -95 71 C-100.47620171 62.78569743 -97.83581702 45.7132196 -96.07226562 36.23413086 C-94.20461855 28.20997687 -90.27623244 22.23329255 -85.2421875 15.890625 C-82.98052607 13.22762383 -82.98052607 13.22762383 -82.0078125 10.671875 C-81.50894531 9.84429687 -81.50894531 9.84429687 -81 9 C-79.34362749 8.61879271 -77.67509123 8.28802474 -76 8 C-74.19523163 6.63228303 -74.19523163 6.63228303 -72.5625 4.875 C-53.13626388 -12.80505759 -21.6404929 -13.72242108 0 0 Z " fill="#6ACC7F" transform="translate(407,266)"/>
<path d="M0 0 C2.57998434 2.22328851 4.49838374 3.98902051 6.01171875 7.0390625 C5.99425255 9.96173948 4.68107176 11.17894659 2.8125 13.375 C0.57934667 16.03456253 -1.33137617 18.48896303 -2.9375 21.5625 C-5 24 -5 24 -8.5625 24.75 C-13.42192747 24.4048444 -17.19820411 21.9911195 -21.2890625 19.5078125 C-29.55963337 14.90775435 -38.99173022 14.68475686 -48.140625 16.6875 C-53.61875286 18.52374398 -57.81789447 21.098671 -62.2734375 24.73828125 C-64.43299041 26.31641607 -66.34137749 26.83383609 -69 27 C-69.66 29.31 -70.32 31.62 -71 34 C-71.66 34 -72.32 34 -73 34 C-73.2165625 35.794375 -73.2165625 35.794375 -73.4375 37.625 C-73.87039343 41.1005158 -74.39616256 44.54950034 -75 48 C-76.485 48.495 -76.485 48.495 -78 49 C-78 45.7 -78 42.4 -78 39 C-78.721875 39.350625 -79.44375 39.70125 -80.1875 40.0625 C-84.57843325 41.52614442 -87.07385469 40.39183071 -91.25 38.625 C-94 37 -94 37 -95 34 C-95.66 34 -96.32 34 -97 34 C-96.81159455 22.50726783 -90.06406848 14.48684431 -82.4453125 6.3515625 C-59.66929427 -15.55125375 -26.16549331 -16.75842868 0 0 Z " fill="#09A9FD" transform="translate(320,269)"/>
<path d="M0 0 C2.57998434 2.22328851 4.49838374 3.98902051 6.01171875 7.0390625 C5.99425255 9.96173948 4.68107176 11.17894659 2.8125 13.375 C0.57934667 16.03456253 -1.33137617 18.48896303 -2.9375 21.5625 C-5 24 -5 24 -8.5625 24.75 C-13.42192747 24.4048444 -17.19820411 21.9911195 -21.2890625 19.5078125 C-29.53969336 14.9188449 -38.97809674 14.66684909 -48.10546875 16.6875 C-54.38023837 18.81154049 -59.69523899 22.0705474 -65 26 C-65.33 25.01 -65.66 24.02 -66 23 C-66.66 22.34 -67.32 21.68 -68 21 C-64.535 20.505 -64.535 20.505 -61 20 C-61.66 19.67 -62.32 19.34 -63 19 C-63 18.34 -63 17.68 -63 17 C-54.585 16.01 -54.585 16.01 -46 15 C-46 13.68 -46 12.36 -46 11 C-44.35 11 -42.7 11 -41 11 C-40.67 9.68 -40.34 8.36 -40 7 C-39.01 7 -38.02 7 -37 7 C-36.67 5.35 -36.34 3.7 -36 2 C-37.32 1.34 -38.64 0.68 -40 0 C-34.25 -3 -34.25 -3 -32 -3 C-32.495 -5.97 -32.495 -5.97 -33 -9 C-40.53727826 -9.2942972 -49.2118855 -9.47536485 -56.0703125 -5.9296875 C-58 -5 -58 -5 -62 -5 C-62.33 -4.01 -62.66 -3.02 -63 -2 C-65.31 -1.67 -67.62 -1.34 -70 -1 C-71.47379393 2.42969367 -71.47379393 2.42969367 -72.1875 6.0625 C-73.36797659 8.87748263 -75.54390995 9.5110809 -78.15234375 10.85546875 C-81.13011508 12.70005014 -82.86170103 15.25075847 -85 18 C-85.66 18.33 -86.32 18.66 -87 19 C-87.33 19.99 -87.66 20.98 -88 22 C-88.99 22 -89.98 22 -91 22 C-91.28875 22.61875 -91.5775 23.2375 -91.875 23.875 C-93 26 -93 26 -95 28 C-96 25 -96 25 -94.8828125 22.65234375 C-84.83595565 7.1355315 -71.9803161 -5.62726608 -53.5625 -10.3125 C-34.5779249 -13.4715333 -16.25290829 -10.40963383 0 0 Z " fill="#19ACFC" transform="translate(320,269)"/>
<path d="M0 0 C2.78219685 1.56074458 3.66342526 3.02615149 5.25390625 5.71875 C7.52034983 8.69557141 10.61019188 10.66949012 13.63671875 12.82421875 C15.5625 14.4375 15.5625 14.4375 16.5625 17.4375 C2.97695148 31.89953552 -14.56167368 40.76391397 -34.4140625 41.43359375 C-52.87682683 41.67479376 -67.38319082 33.70437119 -81.4375 22.4375 C-82.4275 21.7775 -83.4175 21.1175 -84.4375 20.4375 C-84.4375 19.7775 -84.4375 19.1175 -84.4375 18.4375 C-85.38841503 17.02810807 -86.39669305 15.65687565 -87.4375 14.3125 C-88.2728125 13.22582031 -88.2728125 13.22582031 -89.125 12.1171875 C-89.558125 11.56289063 -89.99125 11.00859375 -90.4375 10.4375 C-89.7775 10.1075 -89.1175 9.7775 -88.4375 9.4375 C-88.4375 10.0975 -88.4375 10.7575 -88.4375 11.4375 C-87.86 11.210625 -87.2825 10.98375 -86.6875 10.75 C-84.4375 10.4375 -84.4375 10.4375 -82.1875 11.75 C-81.61 12.306875 -81.0325 12.86375 -80.4375 13.4375 C-80.4375 14.0975 -80.4375 14.7575 -80.4375 15.4375 C-79.7775 15.4375 -79.1175 15.4375 -78.4375 15.4375 C-78.4375 16.4275 -78.4375 17.4175 -78.4375 18.4375 C-74.1475 19.0975 -69.8575 19.7575 -65.4375 20.4375 C-65.4375 21.0975 -65.4375 21.7575 -65.4375 22.4375 C-62.7975 22.4375 -60.1575 22.4375 -57.4375 22.4375 C-57.4375 23.0975 -57.4375 23.7575 -57.4375 24.4375 C-56.4475 24.7675 -55.4575 25.0975 -54.4375 25.4375 C-54.4375 26.4275 -54.4375 27.4175 -54.4375 28.4375 C-51.4675 28.7675 -48.4975 29.0975 -45.4375 29.4375 C-44.9425 27.9525 -44.9425 27.9525 -44.4375 26.4375 C-42.5 26.75 -42.5 26.75 -40.4375 27.4375 C-39.9425 28.9225 -39.9425 28.9225 -39.4375 30.4375 C-37.16802303 30.80025656 -34.89685265 31.15243186 -32.625 31.5 C-31.36042969 31.69722656 -30.09585938 31.89445312 -28.79296875 32.09765625 C-25.44639661 32.6683613 -25.44639661 32.6683613 -22.4375 31.4375 C-19.75 32.375 -19.75 32.375 -17.4375 33.4375 C-17.4375 32.7775 -17.4375 32.1175 -17.4375 31.4375 C-16.4475 31.1075 -15.4575 30.7775 -14.4375 30.4375 C-14.4375 29.4475 -14.4375 28.4575 -14.4375 27.4375 C-13.1175 27.4375 -11.7975 27.4375 -10.4375 27.4375 C-9.9425 25.9525 -9.9425 25.9525 -9.4375 24.4375 C-8.9425 25.4275 -8.9425 25.4275 -8.4375 26.4375 C-7.6021875 26.1590625 -7.6021875 26.1590625 -6.75 25.875 C-4.038367 25.36198835 -2.09378961 25.7734276 0.5625 26.4375 C0.5625 25.7775 0.5625 25.1175 0.5625 24.4375 C-0.0975 24.4375 -0.7575 24.4375 -1.4375 24.4375 C-0.9425 22.9525 -0.9425 22.9525 -0.4375 21.4375 C1.2125 21.4375 2.8625 21.4375 4.5625 21.4375 C2.75027466 19.3750006 2.75027466 19.3750006 0.5625 17.4375 C-0.4275 17.4375 -1.4175 17.4375 -2.4375 17.4375 C-4.91893478 17.33022523 -7.39564798 17.20512811 -9.875 17.0625 C-10.54337891 17.0315625 -11.21175781 17.000625 -11.90039062 16.96875 C-15.58173609 16.74983947 -18.24860943 16.27374028 -21.4375 14.4375 C-22.7617287 14.06965869 -24.09363912 13.72547019 -25.4375 13.4375 C-24.6640625 13.169375 -23.890625 12.90125 -23.09375 12.625 C-16.38176979 10.09970052 -11.79570542 7.52903825 -7.05859375 2.109375 C-4.75573797 -0.26561843 -3.22146008 -0.74341387 0 0 Z " fill="#45F4C8" transform="translate(409.4375,343.5625)"/>
<path d="M0 0 C2.0625 0.4375 2.0625 0.4375 4 1 C3.57847656 1.81984375 3.15695313 2.6396875 2.72265625 3.484375 C2.17480469 4.56203125 1.62695312 5.6396875 1.0625 6.75 C0.24458984 8.35101563 0.24458984 8.35101563 -0.58984375 9.984375 C-4.64789992 18.66254499 -4.56349567 30.49792745 -1.9765625 39.6015625 C3.09364438 50.44228107 11.06009043 57.45502713 22 62 C18.04158091 63.20808894 15.84131602 62.58663053 12 61 C11.34 60.34 10.68 59.68 10 59 C7.68234271 58.28072705 5.34904126 57.6090107 3 57 C3 56.34 3 55.68 3 55 C2.34 55 1.68 55 1 55 C-0.32 50.71 -1.64 46.42 -3 42 C-3 43.32 -3 44.64 -3 46 C-6.96 45.67 -10.92 45.34 -15 45 C-14.67 46.65 -14.34 48.3 -14 50 C-14.33 49.34 -14.66 48.68 -15 48 C-17.3306218 47.64820803 -19.66435067 47.31669821 -22 47 C-24.4375 45.9375 -24.4375 45.9375 -26 45 C-25.484375 45.53625 -24.96875 46.0725 -24.4375 46.625 C-23 49 -23 49 -23.3125 52.25 C-23.539375 53.1575 -23.76625 54.065 -24 55 C-31.17539218 46.15925891 -31.38609616 35.72085434 -31.4375 24.8125 C-31.44740967 23.70825684 -31.45731934 22.60401367 -31.4675293 21.46630859 C-31.39504849 14.50502282 -30.41127705 8.53570904 -28 2 C-26.875 5.75 -26.875 5.75 -28 8 C-27.34 8 -26.68 8 -26 8 C-25.67 7.34 -25.34 6.68 -25 6 C-25 7.65 -25 9.3 -25 11 C-17.1310957 13.76577264 -17.1310957 13.76577264 -9 13 C-8.67 15.97 -8.34 18.94 -8 22 C-7.34 22 -6.68 22 -6 22 C-5.90912109 21.11248047 -5.90912109 21.11248047 -5.81640625 20.20703125 C-5.37987629 16.09021792 -4.91328654 12.04455467 -4 8 C-3.34 8 -2.68 8 -2 8 C-1.855625 6.865625 -1.71125 5.73125 -1.5625 4.5625 C-1 1 -1 1 0 0 Z " fill="#0073F7" transform="translate(251,295)"/>
<path d="M0 0 C1.65 0 3.3 0 5 0 C1.78105326 3.35306952 -1.68194532 6.37798293 -5.1953125 9.4140625 C-8.63576814 12.28107976 -8.63576814 12.28107976 -9.25 16.8125 C-9.16826569 20.30192644 -8.43173866 22.799643 -7 26 C-5.04774714 35.76126432 -5.24242029 44.76261655 -9 54 C-9.44730469 53.60167969 -9.89460938 53.20335937 -10.35546875 52.79296875 C-16.09706037 47.22089494 -16.09706037 47.22089494 -23.375 45 C-26.4562771 46.17381985 -28.67298071 47.8783842 -31.29296875 49.84765625 C-33.50883561 51.34349315 -35.32940291 51.92369723 -38 52 C-40 50 -40 50 -40.24291992 47.34204102 C-40.23675659 45.68966431 -40.23675659 45.68966431 -40.23046875 44.00390625 C-40.22853516 42.80572266 -40.22660156 41.60753906 -40.22460938 40.37304688 C-40.21236328 39.11556641 -40.20011719 37.85808594 -40.1875 36.5625 C-40.18685547 35.30888672 -40.18621094 34.05527344 -40.18554688 32.76367188 C-40.14036515 23.42109545 -40.14036515 23.42109545 -39 20 C-38.01 19.67 -37.02 19.34 -36 19 C-35.67 19.99 -35.34 20.98 -35 22 C-32.03 22 -29.06 22 -26 22 C-26 21.34 -26 20.68 -26 20 C-24.96939453 19.51080078 -24.96939453 19.51080078 -23.91796875 19.01171875 C-22.56638672 18.35623047 -22.56638672 18.35623047 -21.1875 17.6875 C-20.29417969 17.25824219 -19.40085937 16.82898438 -18.48046875 16.38671875 C-15.99176595 15.14800289 -15.99176595 15.14800289 -14.36328125 13.33203125 C-13 12 -13 12 -10 12 C-9.896875 11.401875 -9.79375 10.80375 -9.6875 10.1875 C-8.89496146 7.66578648 -8.08408591 6.60314301 -6 5 C-5.01 5 -4.02 5 -3 5 C-3 4.34 -3 3.68 -3 3 C-2.01 3 -1.02 3 0 3 C0 2.01 0 1.02 0 0 Z " fill="#438FAF" transform="translate(351,287)"/>
<path d="M0 0 C2.00197715 2.00197715 2.94891921 3.63559875 4.25 6.125 C6.7653596 10.75776679 9.72955222 14.87541466 13 19 C12.34 19 11.68 19 11 19 C10.77054687 19.7425 10.54109375 20.485 10.3046875 21.25 C6.70190359 28.84389184 -3.33222888 33.11149616 -10.84765625 35.96484375 C-27.88643614 41.55998213 -43.14052665 41.18724375 -59.41796875 33.35546875 C-65.12031517 30.39798061 -70.31772553 27.41471593 -75 23 C-72.16032769 23 -69.76264289 23.40267181 -67 24 C-66.67 25.32 -66.34 26.64 -66 28 C-64.35 28 -62.7 28 -61 28 C-61 28.66 -61 29.32 -61 30 C-60.01 30 -59.02 30 -58 30 C-58 30.66 -58 31.32 -58 32 C-56.68 32 -55.36 32 -54 32 C-54 31.34 -54 30.68 -54 30 C-50.37471432 29.79859524 -48.13498292 30.14223235 -45 32 C-44.01 31.34 -43.02 30.68 -42 30 C-42 30.66 -42 31.32 -42 32 C-41.30132812 31.98839844 -40.60265625 31.97679687 -39.8828125 31.96484375 C-38.51769531 31.95130859 -38.51769531 31.95130859 -37.125 31.9375 C-35.76761719 31.92009766 -35.76761719 31.92009766 -34.3828125 31.90234375 C-32 32 -32 32 -30 33 C-28.29636178 33.22622081 -26.58671299 33.40888473 -24.875 33.5625 C-23.96492188 33.64628906 -23.05484375 33.73007812 -22.1171875 33.81640625 C-21.41851562 33.87699219 -20.71984375 33.93757813 -20 34 C-23.63719605 36.42479736 -25.85703482 36.38662577 -30.1875 36.625 C-31.45980469 36.69976562 -32.73210937 36.77453125 -34.04296875 36.8515625 C-35.01878906 36.90054688 -35.99460937 36.94953125 -37 37 C-26.95277953 37.39229928 -18.16649316 36.13390868 -9 32 C-7.01178687 31.60235737 -5.01267638 31.24544834 -3 31 C-3 30.01 -3 29.02 -3 28 C-1.68 28 -0.36 28 1 28 C0.505 24.535 0.505 24.535 0 21 C-0.66 21.66 -1.32 22.32 -2 23 C-2.495 22.01 -2.495 22.01 -3 21 C-5.02463255 20.34786708 -5.02463255 20.34786708 -7 20 C-6.34 18.02 -5.68 16.04 -5 14 C-5.99 13.01 -5.99 13.01 -7 12 C-7.33 12.33 -7.66 12.66 -8 13 C-9.33802186 13.22513101 -10.68573023 13.39360807 -12.03515625 13.53515625 C-12.84404297 13.62216797 -13.65292969 13.70917969 -14.48632812 13.79882812 C-15.33646484 13.88583984 -16.18660156 13.97285156 -17.0625 14.0625 C-17.91650391 14.15337891 -18.77050781 14.24425781 -19.65039062 14.33789062 C-21.76651535 14.56250722 -23.88320894 14.78175227 -26 15 C-26 15.99 -26 16.98 -26 18 C-28.64 17.34 -31.28 16.68 -34 16 C-34 16.66 -34 17.32 -34 18 C-36.64 18 -39.28 18 -42 18 C-42.495 16.515 -42.495 16.515 -43 15 C-42.01 15 -41.02 15 -40 15 C-40 14.34 -40 13.68 -40 13 C-39.06800781 13.05800781 -38.13601563 13.11601562 -37.17578125 13.17578125 C-26.59944319 13.55007026 -17.47104102 12.02752113 -8.5625 5.75 C-5.66360727 3.77026838 -3.46237694 3.32975018 0 3 C0 2.01 0 1.02 0 0 Z " fill="#005EF3" transform="translate(314,345)"/>
<path d="M0 0 C2.78219685 1.56074458 3.66342526 3.02615149 5.25390625 5.71875 C7.52034983 8.69557141 10.61019188 10.66949012 13.63671875 12.82421875 C15.5625 14.4375 15.5625 14.4375 16.5625 17.4375 C10.19828348 24.21231114 3.09893063 29.34926805 -5.0625 33.75 C-5.99425049 34.25623901 -5.99425049 34.25623901 -6.94482422 34.77270508 C-16.66825125 39.86353827 -16.66825125 39.86353827 -21.875 39.0625 C-22.390625 38.85625 -22.90625 38.65 -23.4375 38.4375 C-23.1075 37.7775 -22.7775 37.1175 -22.4375 36.4375 C-19.93359375 36.0234375 -19.93359375 36.0234375 -16.875 35.8125 C-15.86308594 35.73773438 -14.85117187 35.66296875 -13.80859375 35.5859375 C-13.02613281 35.53695312 -12.24367188 35.48796875 -11.4375 35.4375 C-11.1075 34.1175 -10.7775 32.7975 -10.4375 31.4375 C-9.7775 31.4375 -9.1175 31.4375 -8.4375 31.4375 C-8.4375 30.1175 -8.4375 28.7975 -8.4375 27.4375 C-5.86536866 25.81800989 -4.76080841 25.39341249 -1.6875 25.8125 C-0.57375 26.121875 -0.57375 26.121875 0.5625 26.4375 C0.5625 25.7775 0.5625 25.1175 0.5625 24.4375 C-0.0975 24.4375 -0.7575 24.4375 -1.4375 24.4375 C-1.1075 23.4475 -0.7775 22.4575 -0.4375 21.4375 C1.2125 21.4375 2.8625 21.4375 4.5625 21.4375 C2.75027466 19.3750006 2.75027466 19.3750006 0.5625 17.4375 C-0.4275 17.4375 -1.4175 17.4375 -2.4375 17.4375 C-4.91893478 17.33022523 -7.39564798 17.20512811 -9.875 17.0625 C-10.87756836 17.01609375 -10.87756836 17.01609375 -11.90039062 16.96875 C-15.58173609 16.74983947 -18.24860943 16.27374028 -21.4375 14.4375 C-22.7617287 14.06965869 -24.09363912 13.72547019 -25.4375 13.4375 C-24.6640625 13.169375 -23.890625 12.90125 -23.09375 12.625 C-16.38176979 10.09970052 -11.79570542 7.52903825 -7.05859375 2.109375 C-4.75573797 -0.26561843 -3.22146008 -0.74341387 0 0 Z " fill="#39DCB5" transform="translate(409.4375,343.5625)"/>
<path d="M0 0 C2.0625 1.453125 2.0625 1.453125 4 3.25 C4.6909375 3.88421875 5.381875 4.5184375 6.09375 5.171875 C8.43097216 7.41330937 10.71020519 9.71020519 13 12 C17.70546648 16.41512918 22.26975074 20.01549518 28 23 C28 23.66 28 24.32 28 25 C28.66 25 29.32 25 30 25 C30 25.99 30 26.98 30 28 C25.89694823 28.24135599 22.83897704 27.41875239 19 26 C18.01 25.67 17.02 25.34 16 25 C16 24.34 16 23.68 16 23 C15.09636719 22.96261719 14.19273437 22.92523438 13.26171875 22.88671875 C12.08222656 22.82097656 10.90273438 22.75523437 9.6875 22.6875 C8.51574219 22.62949219 7.34398437 22.57148438 6.13671875 22.51171875 C3 22 3 22 1.08203125 20.64453125 C0 19 0 19 0 16 C-0.99580078 16.01740234 -0.99580078 16.01740234 -2.01171875 16.03515625 C-10.78207381 16.12478032 -10.78207381 16.12478032 -15 15 C-15.29315452 10.01637315 -15.26494218 6.89686647 -12 3 C-7.99782763 -0.11280073 -4.9773734 -1.58721195 0 0 Z " fill="#1EDDCD" transform="translate(332,332)"/>
<path d="M0 0 C0 0.33 0 0.66 0 1 C-4.455 1.495 -4.455 1.495 -9 2 C-9 2.33 -9 2.66 -9 3 C-12.3 3 -15.6 3 -19 3 C-19 3.33 -19 3.66 -19 4 C-18.40461426 4.01458252 -17.80922852 4.02916504 -17.19580078 4.04418945 C-14.50486949 4.11854344 -11.81519667 4.21524187 -9.125 4.3125 C-8.18785156 4.33505859 -7.25070312 4.35761719 -6.28515625 4.38085938 C-4.94130859 4.4340332 -4.94130859 4.4340332 -3.5703125 4.48828125 C-2.74289551 4.51446533 -1.91547852 4.54064941 -1.06298828 4.56762695 C1 5 1 5 3 8 C-0.96 7.67 -4.92 7.34 -9 7 C-9.33 7.66 -9.66 8.32 -10 9 C-10.495 7.515 -10.495 7.515 -11 6 C-12.77119803 6.14133499 -14.54195287 6.28823208 -16.3125 6.4375 C-17.29863281 6.51871094 -18.28476562 6.59992188 -19.30078125 6.68359375 C-22.09375599 6.91812559 -22.09375599 6.91812559 -25 8 C-25 8.99 -25 9.98 -25 11 C-24.01 11.66 -23.02 12.32 -22 13 C-21.3125 16.125 -21.3125 16.125 -21 19 C-20.34 19 -19.68 19 -19 19 C-18.67 18.34 -18.34 17.68 -18 17 C-16.1875 16.55078125 -16.1875 16.55078125 -14 16.3125 C-13.278125 16.22613281 -12.55625 16.13976562 -11.8125 16.05078125 C-11.214375 16.03402344 -10.61625 16.01726562 -10 16 C-9.67 16.33 -9.34 16.66 -9 17 C-7.14227838 16.91015699 -5.28752015 16.75388139 -3.4375 16.5625 C-2.42558594 16.46066406 -1.41367187 16.35882813 -0.37109375 16.25390625 C0.41136719 16.17011719 1.19382812 16.08632813 2 16 C2 18.31 2 20.62 2 23 C2.639375 23.103125 3.27875 23.20625 3.9375 23.3125 C4.618125 23.539375 5.29875 23.76625 6 24 C6.495 25.485 6.495 25.485 7 27 C9.09719872 28.02281518 9.09719872 28.02281518 11.5625 28.6875 C12.38878906 28.93886719 13.21507812 29.19023437 14.06640625 29.44921875 C14.70449219 29.63097656 15.34257812 29.81273437 16 30 C16 31.32 16 32.64 16 34 C15.43023437 33.71125 14.86046875 33.4225 14.2734375 33.125 C5.65207558 28.85875905 -2.42737915 27.04829854 -12 26 C-9 24 -9 24 -6 23 C-9.16278433 22.8083161 -11.31591665 23.09945524 -14.375 24.0625 C-18.34283245 25.08866357 -21.01957351 24.81233194 -25 24 C-25 24.66 -25 25.32 -25 26 C-26.32 25.67 -27.64 25.34 -29 25 C-29 24.34 -29 23.68 -29 23 C-27.35 22.67 -25.7 22.34 -24 22 C-24 20.68 -24 19.36 -24 18 C-25.32 18 -26.64 18 -28 18 C-28 17.34 -28 16.68 -28 16 C-28.66 15.67 -29.32 15.34 -30 15 C-31 14 -31 14 -32 11 C-31.34 10.67 -30.68 10.34 -30 10 C-34.65052872 9.73067479 -34.65052872 9.73067479 -39 11 C-39 11.66 -39 12.32 -39 13 C-39.66 13 -40.32 13 -41 13 C-41 13.66 -41 14.32 -41 15 C-40.34 15 -39.68 15 -39 15 C-39 15.99 -39 16.98 -39 18 C-40.32 18 -41.64 18 -43 18 C-43.33 17.01 -43.66 16.02 -44 15 C-45.65 15.33 -47.3 15.66 -49 16 C-36.39928465 1.71918927 -17.92969712 -0.22381037 0 0 Z " fill="#71CB81" transform="translate(382,257)"/>
<path d="M0 0 C1.32 0.66 2.64 1.32 4 2 C4.66 2.12375 5.32 2.2475 6 2.375 C8.82662293 3.25831966 10.1289562 4.74184369 12 7 C12.8125 8.86328125 12.8125 8.86328125 13 11 C11.70703125 13.1484375 11.70703125 13.1484375 9.8125 15.375 C7.57934667 18.03456253 5.66862383 20.48896303 4.0625 23.5625 C2 26 2 26 -1.5625 26.75 C-6.42192747 26.4048444 -10.19820411 23.9911195 -14.2890625 21.5078125 C-22.53969336 16.9188449 -31.97809674 16.66684909 -41.10546875 18.6875 C-47.38023837 20.81154049 -52.69523899 24.0705474 -58 28 C-58.33 27.01 -58.66 26.02 -59 25 C-59.66 24.34 -60.32 23.68 -61 23 C-57.535 22.505 -57.535 22.505 -54 22 C-54.66 21.67 -55.32 21.34 -56 21 C-56 20.34 -56 19.68 -56 19 C-47.585 18.01 -47.585 18.01 -39 17 C-39 16.34 -39 15.68 -39 15 C-35.93466836 13.46733418 -32.73245728 13.89723529 -29.375 13.9375 C-28.31539063 13.94426758 -28.31539063 13.94426758 -27.234375 13.95117188 C-25.48954725 13.96296125 -23.744763 13.98089676 -22 14 C-22 13.34 -22 12.68 -22 12 C-21.071875 12.2784375 -21.071875 12.2784375 -20.125 12.5625 C-17.95839822 13.23686176 -17.95839822 13.23686176 -16 12 C-16.33 13.98 -16.66 15.96 -17 18 C-11.99502391 18.44367932 -11.99502391 18.44367932 -7.625 16.3125 C-5.86565598 13.80881813 -5.33533277 12.01799494 -5 9 C-4.34 9 -3.68 9 -3 9 C-2.01 6.03 -1.02 3.06 0 0 Z " fill="#1E9FEF" transform="translate(313,267)"/>
<path d="M0 0 C3.60401481 -0.08701039 7.20776012 -0.14039388 10.8125 -0.1875 C11.83666016 -0.21263672 12.86082031 -0.23777344 13.91601562 -0.26367188 C15.39038086 -0.27817383 15.39038086 -0.27817383 16.89453125 -0.29296875 C18.25348511 -0.31653442 18.25348511 -0.31653442 19.63989258 -0.34057617 C22.49156876 0.07093601 23.16889331 0.85004226 25 3 C26.485 3.99 26.485 3.99 28 5 C27.34 6.98 26.68 8.96 26 11 C27.32 11 28.64 11 30 11 C30.495 14.465 30.495 14.465 31 18 C32.32 18.33 33.64 18.66 35 19 C35 19.66 35 20.32 35 21 C34.01 21 33.02 21 32 21 C32 21.66 32 22.32 32 23 C33.06541016 23.09087891 33.06541016 23.09087891 34.15234375 23.18359375 C35.07144531 23.26738281 35.99054688 23.35117187 36.9375 23.4375 C38.31228516 23.55931641 38.31228516 23.55931641 39.71484375 23.68359375 C42 24 42 24 43 25 C43.3125 27.3125 43.3125 27.3125 43 30 C41 32.3125 41 32.3125 39 34 C36.74754119 31.31158141 35.11786042 29.35358125 34 26 C31.67328135 24.98470459 29.3396553 23.98511802 27 23 C26.34 22.01 25.68 21.02 25 20 C24.01 19.67 23.02 19.34 22 19 C21.67 17.02 21.34 15.04 21 13 C17.37 13.33 13.74 13.66 10 14 C10 13.34 10 12.68 10 12 C7.36 12.33 4.72 12.66 2 13 C1.67 13.99 1.34 14.98 1 16 C0.01 15.67 -0.98 15.34 -2 15 C-2 13.35 -2 11.7 -2 10 C-2.66 9.67 -3.32 9.34 -4 9 C-4.66 8.34 -5.32 7.68 -6 7 C-5.8125 4.9375 -5.8125 4.9375 -5 3 C-1.85069107 1.95023036 0.38814456 1.89868405 3.6875 1.9375 C4.68136719 1.94652344 5.67523438 1.95554687 6.69921875 1.96484375 C7.83810547 1.98224609 7.83810547 1.98224609 9 2 C9.33 2.66 9.66 3.32 10 4 C10.99 3.34 11.98 2.68 13 2 C15.26171875 2.0234375 15.26171875 2.0234375 17.6875 2.375 C18.49574219 2.48585938 19.30398438 2.59671875 20.13671875 2.7109375 C20.75160156 2.80632812 21.36648438 2.90171875 22 3 C20.38219843 1.38219843 18.54364482 1.77727853 16.30859375 1.68359375 C15.36435547 1.64169922 14.42011719 1.59980469 13.44726562 1.55664062 C12.45404297 1.51732422 11.46082031 1.47800781 10.4375 1.4375 C9.44041016 1.39431641 8.44332031 1.35113281 7.41601562 1.30664062 C4.9441585 1.20019702 2.4721969 1.09818072 0 1 C0 0.67 0 0.34 0 0 Z " fill="#73CD7F" transform="translate(362,261)"/>
<path d="M0 0 C2.0625 0.4375 2.0625 0.4375 4 1 C3.57847656 1.81984375 3.15695313 2.6396875 2.72265625 3.484375 C2.17480469 4.56203125 1.62695312 5.6396875 1.0625 6.75 C0.24458984 8.35101563 0.24458984 8.35101563 -0.58984375 9.984375 C-4.64789992 18.66254499 -4.56349567 30.49792745 -1.9765625 39.6015625 C3.09364438 50.44228107 11.06009043 57.45502713 22 62 C18.04158091 63.20808894 15.84131602 62.58663053 12 61 C11.34 60.34 10.68 59.68 10 59 C7.68234271 58.28072705 5.34904126 57.6090107 3 57 C3 56.34 3 55.68 3 55 C2.34 55 1.68 55 1 55 C0.35105763 52.93847611 -0.2940264 50.87573742 -0.9375 48.8125 C-1.29714844 47.66394531 -1.65679687 46.51539063 -2.02734375 45.33203125 C-2.83756036 42.55646994 -3.49134307 39.84312452 -4 37 C-4.66 37 -5.32 37 -6 37 C-9.28874656 30.6672508 -10.70245971 25.12608999 -11 18 C-11.33 18.66 -11.66 19.32 -12 20 C-14.31 20 -16.62 20 -19 20 C-19 19.34 -19 18.68 -19 18 C-19.804375 18.020625 -20.60875 18.04125 -21.4375 18.0625 C-24 18 -24 18 -25 17 C-25.04063832 15.33382885 -25.042721 13.66611905 -25 12 C-26.32 12.33 -27.64 12.66 -29 13 C-29.0544452 15.20805524 -29.09299283 17.41650554 -29.125 19.625 C-29.14820313 20.85476563 -29.17140625 22.08453125 -29.1953125 23.3515625 C-29.00182712 26.96586949 -28.15750988 29.60214843 -27 33 C-27.0234375 35.5546875 -27.0234375 35.5546875 -27.375 37.875 C-27.54128906 39.04675781 -27.54128906 39.04675781 -27.7109375 40.2421875 C-27.80632812 40.82226562 -27.90171875 41.40234375 -28 42 C-27.34 42 -26.68 42 -26 42 C-26 42.66 -26 43.32 -26 44 C-22.37 44.33 -18.74 44.66 -15 45 C-14.67 46.65 -14.34 48.3 -14 50 C-14.33 49.34 -14.66 48.68 -15 48 C-17.3306218 47.64820803 -19.66435067 47.31669821 -22 47 C-24.4375 45.9375 -24.4375 45.9375 -26 45 C-25.484375 45.53625 -24.96875 46.0725 -24.4375 46.625 C-23 49 -23 49 -23.3125 52.25 C-23.539375 53.1575 -23.76625 54.065 -24 55 C-31.17539218 46.15925891 -31.38609616 35.72085434 -31.4375 24.8125 C-31.44740967 23.70825684 -31.45731934 22.60401367 -31.4675293 21.46630859 C-31.39504849 14.50502282 -30.41127705 8.53570904 -28 2 C-26.875 5.75 -26.875 5.75 -28 8 C-27.34 8 -26.68 8 -26 8 C-25.67 7.34 -25.34 6.68 -25 6 C-25 7.65 -25 9.3 -25 11 C-17.1310957 13.76577264 -17.1310957 13.76577264 -9 13 C-8.67 15.97 -8.34 18.94 -8 22 C-7.34 22 -6.68 22 -6 22 C-5.90912109 21.11248047 -5.90912109 21.11248047 -5.81640625 20.20703125 C-5.37987629 16.09021792 -4.91328654 12.04455467 -4 8 C-3.34 8 -2.68 8 -2 8 C-1.855625 6.865625 -1.71125 5.73125 -1.5625 4.5625 C-1 1 -1 1 0 0 Z " fill="#008DFA" transform="translate(251,295)"/>
<path d="M0 0 C1.98 0 3.96 0 6 0 C5.34 2.31 4.68 4.62 4 7 C2.68 7.33 1.36 7.66 0 8 C0.33 9.65 0.66 11.3 1 13 C-0.98 13 -2.96 13 -5 13 C-5 13.66 -5 14.32 -5 15 C-5.66 15 -6.32 15 -7 15 C-7.226875 15.825 -7.45375 16.65 -7.6875 17.5 C-8.79831528 20.46217407 -9.89362947 22.47770604 -11.625 25.0625 C-13.66020093 28.17200054 -14.59542036 30.18930972 -14 34 C-13.01 34 -12.02 34 -11 34 C-11 33.34 -11 32.68 -11 32 C-9.51882199 32.28127421 -8.04006751 32.57533732 -6.5625 32.875 C-5.73878906 33.03742188 -4.91507813 33.19984375 -4.06640625 33.3671875 C-3.38449219 33.57601562 -2.70257813 33.78484375 -2 34 C-1.67 34.66 -1.34 35.32 -1 36 C-1.66 36 -2.32 36 -3 36 C-3.2165625 37.794375 -3.2165625 37.794375 -3.4375 39.625 C-3.87039343 43.1005158 -4.39616256 46.54950034 -5 50 C-6.485 50.495 -6.485 50.495 -8 51 C-8 47.7 -8 44.4 -8 41 C-8.721875 41.350625 -9.44375 41.70125 -10.1875 42.0625 C-14.57843325 43.52614442 -17.07385469 42.39183071 -21.25 40.625 C-24 39 -24 39 -25 36 C-25.66 36 -26.32 36 -27 36 C-26.74553175 31.67403972 -26.3880665 29.47997699 -23.625 26.0625 C-21 24 -21 24 -18 24 C-17.67 22.68 -17.34 21.36 -17 20 C-16.34 20 -15.68 20 -15 20 C-14.34 18.68 -13.68 17.36 -13 16 C-12.34 16 -11.68 16 -11 16 C-10.773125 15.401875 -10.54625 14.80375 -10.3125 14.1875 C-8.66023856 11.43373093 -6.7245803 10.63474818 -4 9 C-2.74172877 7.15017528 -2.74172877 7.15017528 -2 5 C-1.62875 4.0925 -1.2575 3.185 -0.875 2.25 C-0.441875 1.13625 -0.441875 1.13625 0 0 Z " fill="#029BFA" transform="translate(250,267)"/>
<path d="M0 0 C0.495 0.99 0.495 0.99 1 2 C1.66 2.33 2.32 2.66 3 3 C2.34 3 1.68 3 1 3 C1 4.32 1 5.64 1 7 C0.34 7 -0.32 7 -1 7 C-1.33 8.32 -1.66 9.64 -2 11 C-2.62648438 11.10957031 -3.25296875 11.21914063 -3.8984375 11.33203125 C-4.71570313 11.49058594 -5.53296875 11.64914062 -6.375 11.8125 C-7.59316406 12.03873047 -7.59316406 12.03873047 -8.8359375 12.26953125 C-11.35820641 12.87544942 -11.35820641 12.87544942 -13 16 C-15.51886453 16.45272716 -17.77439099 16.70377008 -20.3125 16.8125 C-21.39011597 16.86494873 -21.39011597 16.86494873 -22.48950195 16.91845703 C-34.25795649 17.33266495 -44.22076998 14.62219029 -55 10 C-55 9.67 -55 9.34 -55 9 C-46.75 9 -38.5 9 -30 9 C-31.32 8.34 -32.64 7.68 -34 7 C-30.14115045 5.60733249 -26.91714363 6.33044902 -22.9375 7 C-17.9014654 7.95090474 -17.9014654 7.95090474 -13 7 C-10.3125 7.9375 -10.3125 7.9375 -8 9 C-8 8.34 -8 7.68 -8 7 C-7.01 6.67 -6.02 6.34 -5 6 C-5 5.01 -5 4.02 -5 3 C-3.68 3 -2.36 3 -1 3 C-0.67 2.01 -0.34 1.02 0 0 Z " fill="#4CF4C5" transform="translate(400,368)"/>
<path d="M0 0 C0.99 0 1.98 0 3 0 C2.68667821 3.1013547 2.38655962 4.61749237 0.13671875 6.84375 C-15.21520136 17.22527173 -31.65393654 21.72280369 -50 19 C-61.23775123 16.48001942 -72.59254168 10.92703213 -81 3 C-78.16032769 3 -75.76264289 3.40267181 -73 4 C-72.67 5.32 -72.34 6.64 -72 8 C-70.35 8 -68.7 8 -67 8 C-67 8.66 -67 9.32 -67 10 C-66.01 10 -65.02 10 -64 10 C-64 10.66 -64 11.32 -64 12 C-62.68 12 -61.36 12 -60 12 C-60 11.34 -60 10.68 -60 10 C-56.37471432 9.79859524 -54.13498292 10.14223235 -51 12 C-50.01 11.34 -49.02 10.68 -48 10 C-48 10.66 -48 11.32 -48 12 C-47.30132812 11.98839844 -46.60265625 11.97679687 -45.8828125 11.96484375 C-44.51769531 11.95130859 -44.51769531 11.95130859 -43.125 11.9375 C-41.76761719 11.92009766 -41.76761719 11.92009766 -40.3828125 11.90234375 C-38 12 -38 12 -36 13 C-34.29636178 13.22622081 -32.58671299 13.40888473 -30.875 13.5625 C-29.96492188 13.64628906 -29.05484375 13.73007812 -28.1171875 13.81640625 C-27.06917969 13.90728516 -27.06917969 13.90728516 -26 14 C-29.63719605 16.42479736 -31.85703482 16.38662577 -36.1875 16.625 C-37.45980469 16.69976562 -38.73210937 16.77453125 -40.04296875 16.8515625 C-41.01878906 16.90054687 -41.99460937 16.94953125 -43 17 C-32.95277953 17.39229928 -24.16649316 16.13390868 -15 12 C-13.01178687 11.60235737 -11.01267638 11.24544834 -9 11 C-9 10.01 -9 9.02 -9 8 C-7.68 8 -6.36 8 -5 8 C-5.495 6.02 -5.495 6.02 -6 4 C-5.34 4 -4.68 4 -4 4 C-3.34 3.34 -2.68 2.68 -2 2 C-1.505 2.99 -1.505 2.99 -1 4 C-0.67 2.68 -0.34 1.36 0 0 Z " fill="#0156E9" transform="translate(320,365)"/>
<path d="M0 0 C1.65 0 3.3 0 5 0 C1.78105326 3.35306952 -1.68194532 6.37798293 -5.1953125 9.4140625 C-9.072968 12.82169915 -9.42825414 14.85428725 -10 20 C-10.66 19.67 -11.32 19.34 -12 19 C-12.2475 19.61875 -12.495 20.2375 -12.75 20.875 C-14.23954094 23.4072196 -15.37581048 23.80718658 -18 25 C-19.0194119 25.98020375 -20.02246356 26.97803008 -21 28 C-25.67520554 30.33760277 -32.22712019 29.41227209 -37.125 28 C-38.07375 27.67 -39.0225 27.34 -40 27 C-39.67 24.69 -39.34 22.38 -39 20 C-38.01 19.67 -37.02 19.34 -36 19 C-35.67 19.99 -35.34 20.98 -35 22 C-32.03 22 -29.06 22 -26 22 C-26 21.34 -26 20.68 -26 20 C-24.96939453 19.51080078 -24.96939453 19.51080078 -23.91796875 19.01171875 C-22.56638672 18.35623047 -22.56638672 18.35623047 -21.1875 17.6875 C-20.29417969 17.25824219 -19.40085937 16.82898438 -18.48046875 16.38671875 C-15.99176595 15.14800289 -15.99176595 15.14800289 -14.36328125 13.33203125 C-13 12 -13 12 -10 12 C-9.896875 11.401875 -9.79375 10.80375 -9.6875 10.1875 C-8.89496146 7.66578648 -8.08408591 6.60314301 -6 5 C-5.01 5 -4.02 5 -3 5 C-3 4.34 -3 3.68 -3 3 C-2.01 3 -1.02 3 0 3 C0 2.01 0 1.02 0 0 Z " fill="#48A2A3" transform="translate(351,287)"/>
<path d="M0 0 C2.31 0.66 4.62 1.32 7 2 C7 2.66 7 3.32 7 4 C9.31 4.33 11.62 4.66 14 5 C14 5.99 14 6.98 14 8 C14.77085937 8.18175781 15.54171875 8.36351562 16.3359375 8.55078125 C17.33882813 8.80214844 18.34171875 9.05351562 19.375 9.3125 C20.37273437 9.55613281 21.37046875 9.79976563 22.3984375 10.05078125 C25 11 25 11 27 14 C29.17897492 15.00805555 29.17897492 15.00805555 31.625 15.6875 C32.44226563 15.93886719 33.25953125 16.19023437 34.1015625 16.44921875 C34.72804688 16.63097656 35.35453125 16.81273437 36 17 C36 17.99 36 18.98 36 20 C31.89694823 20.24135599 28.83897704 19.41875239 25 18 C24.01 17.67 23.02 17.34 22 17 C22 16.34 22 15.68 22 15 C21.09636719 14.96261719 20.19273437 14.92523438 19.26171875 14.88671875 C18.08222656 14.82097656 16.90273438 14.75523437 15.6875 14.6875 C13.92986328 14.60048828 13.92986328 14.60048828 12.13671875 14.51171875 C9 14 9 14 7.08203125 12.64453125 C6 11 6 11 6 8 C5.33613281 8.01160156 4.67226563 8.02320313 3.98828125 8.03515625 C-4.78207381 8.12478032 -4.78207381 8.12478032 -9 7 C-8.125 3.125 -8.125 3.125 -7 2 C-4.66702567 1.95907063 -2.33294775 1.95758277 0 2 C0 1.34 0 0.68 0 0 Z " fill="#26E9CA" transform="translate(326,340)"/>
<path d="M0 0 C0 0.33 0 0.66 0 1 C-4.455 1.495 -4.455 1.495 -9 2 C-9 2.33 -9 2.66 -9 3 C-12.3 3 -15.6 3 -19 3 C-19 3.33 -19 3.66 -19 4 C-18.40461426 4.01458252 -17.80922852 4.02916504 -17.19580078 4.04418945 C-14.50486949 4.11854344 -11.81519667 4.21524187 -9.125 4.3125 C-8.18785156 4.33505859 -7.25070312 4.35761719 -6.28515625 4.38085938 C-4.94130859 4.4340332 -4.94130859 4.4340332 -3.5703125 4.48828125 C-2.74289551 4.51446533 -1.91547852 4.54064941 -1.06298828 4.56762695 C1 5 1 5 3 8 C-0.96 7.67 -4.92 7.34 -9 7 C-9.33 7.66 -9.66 8.32 -10 9 C-10.495 7.515 -10.495 7.515 -11 6 C-12.77119803 6.14133499 -14.54195287 6.28823208 -16.3125 6.4375 C-17.29863281 6.51871094 -18.28476562 6.59992188 -19.30078125 6.68359375 C-22.09375599 6.91812559 -22.09375599 6.91812559 -25 8 C-25 8.99 -25 9.98 -25 11 C-24.01 11.66 -23.02 12.32 -22 13 C-21.3125 15.625 -21.3125 15.625 -21 18 C-23.31 18 -25.62 18 -28 18 C-28 17.34 -28 16.68 -28 16 C-28.66 15.67 -29.32 15.34 -30 15 C-31 14 -31 14 -32 11 C-31.34 10.67 -30.68 10.34 -30 10 C-34.65052872 9.73067479 -34.65052872 9.73067479 -39 11 C-39 11.66 -39 12.32 -39 13 C-39.66 13 -40.32 13 -41 13 C-41 13.66 -41 14.32 -41 15 C-40.34 15 -39.68 15 -39 15 C-39 15.99 -39 16.98 -39 18 C-40.32 18 -41.64 18 -43 18 C-43.33 17.01 -43.66 16.02 -44 15 C-45.65 15.33 -47.3 15.66 -49 16 C-36.39928465 1.71918927 -17.92969712 -0.22381037 0 0 Z " fill="#71CD85" transform="translate(382,257)"/>
<path d="M0 0 C1.32 0 2.64 0 4 0 C4.33 1.65 4.66 3.3 5 5 C6.65 5.33 8.3 5.66 10 6 C10 6.66 10 7.32 10 8 C12.31 8 14.62 8 17 8 C17.33 7.01 17.66 6.02 18 5 C18.33 5 18.66 5 19 5 C19.06058594 5.73605469 19.12117188 6.47210938 19.18359375 7.23046875 C19.30927734 8.69419922 19.30927734 8.69419922 19.4375 10.1875 C19.51871094 11.15042969 19.59992188 12.11335938 19.68359375 13.10546875 C19.97666151 15.78649602 20.42703754 18.3662986 21 21 C19.52031676 20.85950482 18.04125484 20.71245174 16.5625 20.5625 C15.73878906 20.48128906 14.91507813 20.40007812 14.06640625 20.31640625 C12 20 12 20 11 19 C10.2575 19.103125 9.515 19.20625 8.75 19.3125 C5.51222872 18.94457144 5.17996555 18.42388259 3.1875 16 C2.465625 15.01 1.74375 14.02 1 13 C0.34 13.66 -0.32 14.32 -1 15 C-1.02685412 12.68756208 -1.04632841 10.3750373 -1.0625 8.0625 C-1.07410156 6.77472656 -1.08570313 5.48695313 -1.09765625 4.16015625 C-1 1 -1 1 0 0 Z " fill="#0084FC" transform="translate(222,307)"/>
<path d="M0 0 C4.60981322 4.06673934 4.80453406 9.270217 5.2265625 15.1640625 C5.40618922 22.13684513 4.62759789 27.54048852 2 34 C1.55269531 33.61328125 1.10539062 33.2265625 0.64453125 32.828125 C-2.8521026 29.81609925 -6.37407463 26.85678969 -10 24 C-8.02 23.67 -6.04 23.34 -4 23 C-4.02320313 22.23816406 -4.04640625 21.47632813 -4.0703125 20.69140625 C-4.18178016 14.31386364 -4.2041874 8.06831841 -2 2 C-1.34 1.34 -0.68 0.68 0 0 Z " fill="#308ACC" transform="translate(340,307)"/>
<path d="M0 0 C0.99 0.99 1.98 1.98 3 3 C2.649375 3.78375 2.29875 4.5675 1.9375 5.375 C1.628125 6.24125 1.31875 7.1075 1 8 C1.33 8.66 1.66 9.32 2 10 C1.34 10 0.68 10 0 10 C0.10169161 12.94727535 0.10169161 12.94727535 1 16 C3.46255685 17.45291273 3.46255685 17.45291273 6 18 C2.93882432 20.62386487 2.26826873 21 -2 21 C-2.33 22.32 -2.66 23.64 -3 25 C-3.33 24.67 -3.66 24.34 -4 24 C-3.67 24.66 -3.34 25.32 -3 26 C0.02934491 26.65772428 0.02934491 26.65772428 3 27 C-0.45029042 29.30019361 -1.94554358 29.43132515 -6 29 C-6.66 28.01 -7.32 27.02 -8 26 C-8.66 26 -9.32 26 -10 26 C-10 35.9 -10 45.8 -10 56 C-15.4935951 47.75960736 -12.85014216 30.60575805 -10.97021484 21.1315918 C-8.97503881 12.88258518 -5.16000798 6.61282576 0 0 Z " fill="#60C19D" transform="translate(322,281)"/>
<path d="M0 0 C0 0.33 0 0.66 0 1 C-0.99012085 1.06731323 -0.99012085 1.06731323 -2.00024414 1.13598633 C-5.02205152 1.34870758 -8.04211837 1.58044406 -11.0625 1.8125 C-12.10083984 1.88275391 -13.13917969 1.95300781 -14.20898438 2.02539062 C-20.16959167 2.4984547 -24.61777671 3.44536866 -30 6 C-31.32 6 -32.64 6 -34 6 C-34.33 6.99 -34.66 7.98 -35 9 C-37.31 9.33 -39.62 9.66 -42 10 C-43.47379393 13.42969367 -43.47379393 13.42969367 -44.1875 17.0625 C-45.36797659 19.87748263 -47.54390995 20.5110809 -50.15234375 21.85546875 C-53.13011508 23.70005014 -54.86170103 26.25075847 -57 29 C-57.66 29.33 -58.32 29.66 -59 30 C-59.33 30.99 -59.66 31.98 -60 33 C-60.99 33 -61.98 33 -63 33 C-63.28875 33.61875 -63.5775 34.2375 -63.875 34.875 C-65 37 -65 37 -67 39 C-68 36 -68 36 -66.8828125 33.65234375 C-56.83595565 18.1355315 -43.9803161 5.37273392 -25.5625 0.6875 C-17.21193518 -0.77010267 -8.44487342 -0.1598011 0 0 Z " fill="#1DA0F1" transform="translate(292,258)"/>
<path d="M0 0 C0.680625 0.103125 1.36125 0.20625 2.0625 0.3125 C2.0625 0.9725 2.0625 1.6325 2.0625 2.3125 C1.0725 2.3125 0.0825 2.3125 -0.9375 2.3125 C-0.9375 2.9725 -0.9375 3.6325 -0.9375 4.3125 C-1.72125 4.76625 -2.505 5.22 -3.3125 5.6875 C-6.05122127 7.05295692 -6.05122127 7.05295692 -6.9375 9.4375 C-7.2675 10.05625 -7.5975 10.675 -7.9375 11.3125 C-10.5625 12.0625 -10.5625 12.0625 -12.9375 12.3125 C-13.2675 13.3025 -13.5975 14.2925 -13.9375 15.3125 C-18.06430467 18.07147487 -22.45488234 20.01048529 -27.3125 21 C-29.9375 20.3125 -29.9375 20.3125 -32.3125 17.3125 C-32.84875 16.3225 -33.385 15.3325 -33.9375 14.3125 C-31.9575 15.3025 -31.9575 15.3025 -29.9375 16.3125 C-29.2878125 15.6009375 -29.2878125 15.6009375 -28.625 14.875 C-26.9375 13.3125 -26.9375 13.3125 -23.9375 12.3125 C-24.4325 11.85875 -24.9275 11.405 -25.4375 10.9375 C-26.9375 9.3125 -26.9375 9.3125 -26.9375 7.3125 C-26.2775 7.3125 -25.6175 7.3125 -24.9375 7.3125 C-24.9375 6.6525 -24.9375 5.9925 -24.9375 5.3125 C-24.2775 5.3125 -23.6175 5.3125 -22.9375 5.3125 C-22.9375 5.9725 -22.9375 6.6325 -22.9375 7.3125 C-14.28912229 6.44115969 -7.43067667 0.79049752 0 0 Z " fill="#5EC592" transform="translate(348.9375,287.6875)"/>
<path d="M0 0 C1.33332095 2.6666419 0.67102033 4.16680303 0 7 C0.66 7.33 1.32 7.66 2 8 C1.01 8.33 0.02 8.66 -1 9 C-1 10.98 -1 12.96 -1 15 C0.0828125 14.6596875 0.0828125 14.6596875 1.1875 14.3125 C4.75584692 13.91601701 6.13871099 14.95622213 9 17 C8.30859375 18.953125 8.30859375 18.953125 7 21 C4.72265625 21.609375 4.72265625 21.609375 2.0625 21.75 C1.18722656 21.80671875 0.31195313 21.8634375 -0.58984375 21.921875 C-2.3924704 21.98030698 -4.19642657 22 -6 22 C-6 21.34 -6 20.68 -6 20 C-6.66 20 -7.32 20 -8 20 C-8 20.66 -8 21.32 -8 22 C-8.66 21.67 -9.32 21.34 -10 21 C-10.16735581 18.07127333 -10.0721992 16.17412747 -8.9375 13.4375 C-7.86431657 10.64722307 -8.25821338 9.78169982 -9 7 C-8.34 6.01 -7.68 5.02 -7 4 C-6.67 3.34 -6.34 2.68 -6 2 C-4.34178227 1.62690101 -2.67422986 1.29299023 -1 1 C-0.67 0.67 -0.34 0.34 0 0 Z " fill="#66CC90" transform="translate(332,273)"/>
<path d="M0 0 C0.99 0 1.98 0 3 0 C3 0.99 3 1.98 3 3 C5.44496043 4.71711243 5.44496043 4.71711243 8 6 C8.33 5.34 8.66 4.68 9 4 C9.99 4.99 10.98 5.98 12 7 C5.63578348 13.77481114 -1.46356937 18.91176805 -9.625 23.3125 C-10.24616699 23.64999268 -10.86733398 23.98748535 -11.50732422 24.33520508 C-21.23075125 29.42603827 -21.23075125 29.42603827 -26.4375 28.625 C-27.2109375 28.315625 -27.2109375 28.315625 -28 28 C-27.67 27.34 -27.34 26.68 -27 26 C-24.49609375 25.5859375 -24.49609375 25.5859375 -21.4375 25.375 C-20.42558594 25.30023438 -19.41367187 25.22546875 -18.37109375 25.1484375 C-17.58863281 25.09945313 -16.80617188 25.05046875 -16 25 C-15.67 23.68 -15.34 22.36 -15 21 C-14.34 21 -13.68 21 -13 21 C-13 19.68 -13 18.36 -13 17 C-10.42786866 15.38050989 -9.32330841 14.95591249 -6.25 15.375 C-5.5075 15.58125 -4.765 15.7875 -4 16 C-4 15.34 -4 14.68 -4 14 C-4.66 14 -5.32 14 -6 14 C-5.67 13.01 -5.34 12.02 -5 11 C-2.69 11.33 -0.38 11.66 2 12 C2 11.34 2 10.68 2 10 C3.32 10 4.64 10 6 10 C6.33 9.34 6.66 8.68 7 8 C4.525 7.505 4.525 7.505 2 7 C2 6.34 2 5.68 2 5 C1.01 4.67 0.02 4.34 -1 4 C-0.67 2.68 -0.34 1.36 0 0 Z " fill="#49C4A5" transform="translate(414,354)"/>
<path d="M0 0 C1.32 0.66 2.64 1.32 4 2 C3.67 2.99 3.34 3.98 3 5 C4.32 5 5.64 5 7 5 C7 6.32 7 7.64 7 9 C5.35 9.33 3.7 9.66 2 10 C2 10.66 2 11.32 2 12 C3.32 12.33 4.64 12.66 6 13 C6 12.34 6 11.68 6 11 C6.92683594 10.93941406 7.85367187 10.87882812 8.80859375 10.81640625 C10.00613281 10.73261719 11.20367187 10.64882813 12.4375 10.5625 C14.22994141 10.44068359 14.22994141 10.44068359 16.05859375 10.31640625 C18.88570244 10.32343886 18.88570244 10.32343886 20 9 C22.69082872 9.17635452 25.32851446 9.61835921 28 10 C28 10.33 28 10.66 28 11 C26.7625 11.2475 25.525 11.495 24.25 11.75 C17.75083697 13.18622204 10.97020936 15.01489532 5 18 C0.20621775 17.63820511 -3.04954769 16.75334555 -7 14 C-6.34 12.02 -5.68 10.04 -5 8 C-3.68 8 -2.36 8 -1 8 C-1.309375 6.8553125 -1.309375 6.8553125 -1.625 5.6875 C-2 3 -2 3 0 0 Z " fill="#6EC980" transform="translate(351,270)"/>
<path d="M0 0 C2.0625 0.4375 2.0625 0.4375 4 1 C3.57847656 1.81984375 3.15695313 2.6396875 2.72265625 3.484375 C2.17480469 4.56203125 1.62695312 5.6396875 1.0625 6.75 C0.51722656 7.81734375 -0.02804688 8.8846875 -0.58984375 9.984375 C-4.64789992 18.66254499 -4.56349567 30.49792745 -1.9765625 39.6015625 C3.09364438 50.44228107 11.06009043 57.45502713 22 62 C18.04158091 63.20808894 15.84131602 62.58663053 12 61 C11.34 60.34 10.68 59.68 10 59 C7.68234271 58.28072705 5.34904126 57.6090107 3 57 C3 56.34 3 55.68 3 55 C2.34 55 1.68 55 1 55 C0.35105763 52.93847611 -0.2940264 50.87573742 -0.9375 48.8125 C-1.29714844 47.66394531 -1.65679687 46.51539063 -2.02734375 45.33203125 C-2.83756036 42.55646994 -3.49134307 39.84312452 -4 37 C-4.66 37 -5.32 37 -6 37 C-6.05874776 33.66674246 -6.09384467 30.33362062 -6.125 27 C-6.14175781 26.06542969 -6.15851563 25.13085938 -6.17578125 24.16796875 C-6.21606145 18.40790037 -5.65416655 13.5225718 -4 8 C-3.34 8 -2.68 8 -2 8 C-1.855625 6.865625 -1.71125 5.73125 -1.5625 4.5625 C-1 1 -1 1 0 0 Z " fill="#2470BE" transform="translate(251,295)"/>
<path d="M0 0 C0.66 0.33 1.32 0.66 2 1 C1.79503906 1.72703125 1.59007812 2.4540625 1.37890625 3.203125 C-0.57204891 10.48420168 -1.61313387 17.47612071 -2 25 C-2.71285156 25.15855469 -3.42570312 25.31710937 -4.16015625 25.48046875 C-8.88274619 26.63092471 -12.97246928 27.63969379 -16.875 30.625 C-19.80825591 32.85427449 -21.35352075 33.89581488 -25 34 C-27 32 -27 32 -27.125 29.375 C-27.08375 28.59125 -27.0425 27.8075 -27 27 C-20.75690073 24.22528921 -15.80203375 23.62365797 -9 24 C-9 21.69 -9 19.38 -9 17 C-8.34 16.67 -7.68 16.34 -7 16 C-3.70770303 10.90224985 -1.73540138 5.79781825 0 0 Z " fill="#3A8BBD" transform="translate(338,305)"/>
<path d="M0 0 C2.375 0.5625 2.375 0.5625 5 2 C6.3125 5.625 6.3125 5.625 7 9 C4.698299 11.36643635 2.35862497 13.69032763 0 16 C-1.02480469 17.01900391 -1.02480469 17.01900391 -2.0703125 18.05859375 C-2.74835938 18.69925781 -3.42640625 19.33992188 -4.125 20 C-5.05699219 20.8971875 -5.05699219 20.8971875 -6.0078125 21.8125 C-8 23 -8 23 -10.7421875 22.6875 C-11.48726563 22.460625 -12.23234375 22.23375 -13 22 C-13.33 20.35 -13.66 18.7 -14 17 C-9.25 13 -9.25 13 -7 13 C-7 12.34 -7 11.68 -7 11 C-6.01 10.67 -5.02 10.34 -4 10 C-3.896875 9.21625 -3.79375 8.4325 -3.6875 7.625 C-3 5 -3 5 0 3 C0 2.01 0 1.02 0 0 Z " fill="#69BB83" transform="translate(416,276)"/>
<path d="M0 0 C1.98 0 3.96 0 6 0 C5.67 2.97 5.34 5.94 5 9 C9.95 9.33 14.9 9.66 20 10 C20.33 11.65 20.66 13.3 21 15 C22.03640625 15.09796875 23.0728125 15.1959375 24.140625 15.296875 C25.51051741 15.4470002 26.88030404 15.59809287 28.25 15.75 C28.93191406 15.811875 29.61382812 15.87375 30.31640625 15.9375 C33.72071989 16.33411907 35.76636201 16.81632234 38.484375 18.953125 C40 21 40 21 40 23 C33.94603147 22.52913578 29.60031359 21.17598217 24.25 18.375 C19.71888352 15.79126828 19.71888352 15.79126828 14.6875 15.25390625 C14.130625 15.50011719 13.57375 15.74632812 13 16 C11.66666667 16.33333333 10.33333333 16.66666667 9 17 C9 16.34 9 15.68 9 15 C8.01 15 7.02 15 6 15 C3 9.25 3 9.25 3 7 C2.34 7 1.68 7 1 7 C0.67 4.69 0.34 2.38 0 0 Z " fill="#32F0CF" transform="translate(312,338)"/>
<path d="M0 0 C0.66 0 1.32 0 2 0 C2 0.66 2 1.32 2 2 C2.5775 1.773125 3.155 1.54625 3.75 1.3125 C6 1 6 1 8.25 2.3125 C8.8275 2.869375 9.405 3.42625 10 4 C10 4.66 10 5.32 10 6 C10.66 6 11.32 6 12 6 C12 6.99 12 7.98 12 9 C12.61488281 9.15855469 13.22976563 9.31710937 13.86328125 9.48046875 C20.56509061 11.41512185 20.56509061 11.41512185 22.8125 14.4375 C23.204375 15.283125 23.59625 16.12875 24 17 C25.29579647 18.36984198 26.61992749 19.7151049 28 21 C27.34 21.99 26.68 22.98 26 24 C22.27621947 22.68456962 19.59626085 21.07711461 16.5625 18.5625 C13.15584416 15.82806053 9.99605431 13.74186983 6 12 C6 11.01 6 10.02 6 9 C4.68978433 6.92712342 4.68978433 6.92712342 3 4.875 C0 1.08333333 0 1.08333333 0 0 Z " fill="#4CF5D1" transform="translate(319,353)"/>
<path d="M0 0 C16.07285824 -1.04822989 29.88878488 9.88771854 41.47265625 19.89453125 C43 22 43 22 42.74609375 24.76171875 C42.49988281 25.50035156 42.25367188 26.23898437 42 27 C40.10786631 24.61426621 38.97608217 22.92824652 38 20 C35.98491642 19.26676204 35.98491642 19.26676204 34 19 C34.66 19.99 35.32 20.98 36 22 C34.35 22.33 32.7 22.66 31 23 C28 18.375 28 18.375 28 15 C26.68 15 25.36 15 24 15 C23.71125 14.030625 23.4225 13.06125 23.125 12.0625 C22.35785318 8.89335797 22.35785318 8.89335797 20 8 C20 8.66 20 9.32 20 10 C18.68 9.67 17.36 9.34 16 9 C15.979375 8.401875 15.95875 7.80375 15.9375 7.1875 C15.09543384 4.56685398 15.09543384 4.56685398 11.4375 3.25 C10.303125 2.8375 9.16875 2.425 8 2 C8 2.66 8 3.32 8 4 C8.99 4.33 9.98 4.66 11 5 C9.35 4.67 7.7 4.34 6 4 C6 3.01 6 2.02 6 1 C4.02 1 2.04 1 0 1 C0 0.67 0 0.34 0 0 Z " fill="#57BE70" transform="translate(382,258)"/>
<path d="M0 0 C0.99 0 1.98 0 3 0 C2.68667821 3.1013547 2.38655962 4.61749237 0.13671875 6.84375 C-15.17969349 17.20126003 -31.68288273 21.78093886 -50 19 C-60.65129683 16.34870317 -60.65129683 16.34870317 -64 13 C-59.18870823 13.48928391 -55.48558963 14.20576415 -51 16 C-38.47805934 18.12236282 -26.61924038 17.24004959 -15 12 C-13.01178687 11.60235737 -11.01267638 11.24544834 -9 11 C-9 10.01 -9 9.02 -9 8 C-7.68 8 -6.36 8 -5 8 C-5.495 6.02 -5.495 6.02 -6 4 C-5.34 4 -4.68 4 -4 4 C-3.34 3.34 -2.68 2.68 -2 2 C-1.505 2.99 -1.505 2.99 -1 4 C-0.67 2.68 -0.34 1.36 0 0 Z " fill="#275CA8" transform="translate(320,365)"/>
<path d="M0 0 C1.125 3.75 1.125 3.75 0 6 C0.66 6 1.32 6 2 6 C2.33 5.34 2.66 4.68 3 4 C3 4.99 3 5.98 3 7 C2.01 7 1.02 7 0 7 C-1.1303319 10.63514741 -1.16711496 14.08338341 -1.1875 17.875 C-1.20167969 19.06867188 -1.21585938 20.26234375 -1.23046875 21.4921875 C-0.99898691 25.01541962 -0.1212622 27.67706911 1 31 C0.9765625 33.5546875 0.9765625 33.5546875 0.625 35.875 C0.45871094 37.04675781 0.45871094 37.04675781 0.2890625 38.2421875 C0.19367188 38.82226562 0.09828125 39.40234375 0 40 C0.66 40 1.32 40 2 40 C2 40.66 2 41.32 2 42 C5.63 42.33 9.26 42.66 13 43 C13.33 44.65 13.66 46.3 14 48 C13.67 47.34 13.34 46.68 13 46 C10.6693782 45.64820803 8.33564933 45.31669821 6 45 C3.5625 43.9375 3.5625 43.9375 2 43 C2.515625 43.53625 3.03125 44.0725 3.5625 44.625 C5 47 5 47 4.6875 50.25 C4.460625 51.1575 4.23375 52.065 4 53 C-3.17539218 44.15925891 -3.38609616 33.72085434 -3.4375 22.8125 C-3.44740967 21.70825684 -3.45731934 20.60401367 -3.4675293 19.46630859 C-3.39504849 12.50502282 -2.41127705 6.53570904 0 0 Z " fill="#1D6CF1" transform="translate(223,297)"/>
<path d="M0 0 C0.33 0.66 0.66 1.32 1 2 C0.01 2 -0.98 2 -2 2 C-2 3.32 -2 4.64 -2 6 C-2.66 6 -3.32 6 -4 6 C-4.33 7.32 -4.66 8.64 -5 10 C-6.32 10 -7.64 10 -9 10 C-9 10.66 -9 11.32 -9 12 C-10.98 12 -12.96 12 -15 12 C-15 12.66 -15 13.32 -15 14 C-15.99 14.33 -16.98 14.66 -18 15 C-18.66 14.67 -19.32 14.34 -20 14 C-19.67 11.69 -19.34 9.38 -19 7 C-17.02 6.34 -15.04 5.68 -13 5 C-13 6.32 -13 7.64 -13 9 C-11.68 9 -10.36 9 -9 9 C-9 8.01 -9 7.02 -9 6 C-9.66 6 -10.32 6 -11 6 C-11 5.34 -11 4.68 -11 4 C-10.34 4 -9.68 4 -9 4 C-9.33 3.01 -9.66 2.02 -10 1 C-6.52674819 -0.1577506 -3.63932552 -0.06866652 0 0 Z " fill="#60C786" transform="translate(352,266)"/>
<path d="M0 0 C0.99 0.33 1.98 0.66 3 1 C3.33 2.98 3.66 4.96 4 7 C5.32 7 6.64 7 8 7 C10.66590937 11.55426184 11.31563182 14.73946963 11 20 C9.68 20.33 8.36 20.66 7 21 C7 19.35 7 17.7 7 16 C5.35 16 3.7 16 2 16 C-1.06475363 10.23826317 -1.19937786 6.37259801 0 0 Z " fill="#62C577" transform="translate(402,266)"/>
<path d="M0 0 C3.9549663 4.98669664 4.13288539 8.98817099 4.0625 15.1875 C4.05798828 15.93708984 4.05347656 16.68667969 4.04882812 17.45898438 C4.03706354 19.30602383 4.01912865 21.15302213 4 23 C3.67 23 3.34 23 3 23 C2.67 25.31 2.34 27.62 2 30 C-0.31 28.02 -2.62 26.04 -5 24 C-4.01 23.67 -3.02 23.34 -2 23 C-1.97494385 22.40985107 -1.9498877 21.81970215 -1.92407227 21.21166992 C-1.80799948 18.53673186 -1.68532428 15.8621362 -1.5625 13.1875 C-1.52318359 12.25873047 -1.48386719 11.32996094 -1.44335938 10.37304688 C-1.40146484 9.48037109 -1.35957031 8.58769531 -1.31640625 7.66796875 C-1.27974854 6.84578857 -1.24309082 6.0236084 -1.20532227 5.17651367 C-1 3 -1 3 0 0 Z " fill="#2A87D7" transform="translate(339,310)"/>
<path d="M0 0 C8.42581598 0.29054538 18.46007862 2.97892678 24.9140625 8.6953125 C25.45160156 9.34113281 25.45160156 9.34113281 26 10 C24.68 10 23.36 10 22 10 C21.01 11.485 21.01 11.485 20 13 C17.57710315 12.58225916 16.29120935 12.30387062 14.5625 10.5 C12.51486377 8.53426922 10.76252651 8.37331439 8 8 C8 7.34 8 6.68 8 6 C7.34 6 6.68 6 6 6 C6 5.01 6 4.02 6 3 C4.02 3 2.04 3 0 3 C0 2.01 0 1.02 0 0 Z " fill="#32B7F5" transform="translate(292,259)"/>
<path d="M0 0 C0.99 0 1.98 0 3 0 C3.33 0.99 3.66 1.98 4 3 C2.70703125 5.05078125 2.70703125 5.05078125 0.8125 7.3125 C-1.41113102 9.99136256 -3.32443056 12.4830038 -4.9375 15.5625 C-7 18 -7 18 -8.9140625 18.46875 C-12.12361471 18.60880319 -14.39620367 18.45284724 -17 16.5 C-17.33 16.005 -17.66 15.51 -18 15 C-16.02 14.67 -14.04 14.34 -12 14 C-12 13.01 -12 12.02 -12 11 C-10.02 10.34 -8.04 9.68 -6 9 C-6 8.34 -6 7.68 -6 7 C-5.195625 6.360625 -4.39125 5.72125 -3.5625 5.0625 C-0.76279268 3.18964068 -0.76279268 3.18964068 0 0 Z " fill="#3577AE" transform="translate(322,275)"/>
<path d="M0 0 C0 0.33 0 0.66 0 1 C-4.455 1.495 -4.455 1.495 -9 2 C-9 2.33 -9 2.66 -9 3 C-12.3 3 -15.6 3 -19 3 C-19 3.33 -19 3.66 -19 4 C-18.40461426 4.01458252 -17.80922852 4.02916504 -17.19580078 4.04418945 C-14.50486949 4.11854344 -11.81519667 4.21524187 -9.125 4.3125 C-8.18785156 4.33505859 -7.25070312 4.35761719 -6.28515625 4.38085938 C-4.94130859 4.4340332 -4.94130859 4.4340332 -3.5703125 4.48828125 C-2.74289551 4.51446533 -1.91547852 4.54064941 -1.06298828 4.56762695 C1 5 1 5 3 8 C-0.96 7.67 -4.92 7.34 -9 7 C-9.33 7.66 -9.66 8.32 -10 9 C-10.33 8.01 -10.66 7.02 -11 6 C-17.32278971 6.32626495 -22.55464391 6.61504892 -28 10 C-27.67 8.35 -27.34 6.7 -27 5 C-29.31 5.33 -31.62 5.66 -34 6 C-26.33627446 -1.66372554 -9.90315844 -0.12361779 0 0 Z " fill="#75CE84" transform="translate(382,257)"/>
<path d="M0 0 C0.99 0.33 1.98 0.66 3 1 C2.54625 1.7425 2.0925 2.485 1.625 3.25 C0.00878936 5.83085035 0.00878936 5.83085035 -0.84985352 8.09277344 C-2 10 -2 10 -3.83178711 10.82128906 C-4.91858765 11.04123535 -4.91858765 11.04123535 -6.02734375 11.265625 C-6.81947266 11.43320312 -7.61160156 11.60078125 -8.42773438 11.7734375 C-9.25595703 11.93070312 -10.08417969 12.08796875 -10.9375 12.25 C-11.76185547 12.42273438 -12.58621094 12.59546875 -13.43554688 12.7734375 C-16.70161306 13.44203919 -19.65610062 14 -23 14 C-23 13.34 -23 12.68 -23 12 C-23.66 12 -24.32 12 -25 12 C-24.67 10.35 -24.34 8.7 -24 7 C-23.01 6.67 -22.02 6.34 -21 6 C-20.67 6.99 -20.34 7.98 -20 9 C-17.03 9 -14.06 9 -11 9 C-11 8.34 -11 7.68 -11 7 C-10.28972656 6.66226562 -9.57945312 6.32453125 -8.84765625 5.9765625 C-7.92855469 5.53054688 -7.00945312 5.08453125 -6.0625 4.625 C-4.68771484 3.96371094 -4.68771484 3.96371094 -3.28515625 3.2890625 C-0.87096198 2.20800838 -0.87096198 2.20800838 0 0 Z " fill="#4DAB9D" transform="translate(336,300)"/>
<path d="M0 0 C1.60407328 -0.02708567 3.2082785 -0.04643483 4.8125 -0.0625 C5.70582031 -0.07410156 6.59914063 -0.08570313 7.51953125 -0.09765625 C10 0 10 0 13 1 C13.33 1.66 13.66 2.32 14 3 C18.47367832 3.79887113 22.77318916 4.02791145 27.30859375 3.953125 C28.44941406 3.93644775 28.44941406 3.93644775 29.61328125 3.91943359 C31.15399104 3.88997885 32.69449816 3.84619416 34.234375 3.78759766 C36.40234375 3.7421875 36.40234375 3.7421875 40 4 C40.66 4.99 41.32 5.98 42 7 C26.66210354 8.45700172 14.37341249 7.16339455 0 1 C0 0.67 0 0.34 0 0 Z " fill="#77CCB3" transform="translate(345,377)"/>
<path d="M0 0 C0.50402344 0.31710937 1.00804687 0.63421875 1.52734375 0.9609375 C4.82528492 2.3468022 8.03626099 2.46177968 11.5625 2.625 C12.23474609 2.66367187 12.90699219 2.70234375 13.59960938 2.7421875 C16.40359266 2.89811904 19.1913546 3 22 3 C24.6875 5.5 24.6875 5.5 27 8 C23.6872733 9.10424223 22.6715846 8.86309912 19.375 8.0625 C13.11984893 6.70904626 7.20962034 6.25963555 1 8 C-0.42944945 5.64561267 -1.08661261 4.51967567 -0.625 1.75 C-0.41875 1.1725 -0.2125 0.595 0 0 Z " fill="#3EE9BA" transform="translate(388,357)"/>
<path d="M0 0 C1.32 0.33 2.64 0.66 4 1 C3.67 1.99 3.34 2.98 3 4 C1.35 4.33 -0.3 4.66 -2 5 C-2.33 5.99 -2.66 6.98 -3 8 C-7.12680467 10.75897487 -11.51738234 12.69798529 -16.375 13.6875 C-19 13 -19 13 -21.375 10 C-21.91125 9.01 -22.4475 8.02 -23 7 C-21.02 7.99 -21.02 7.99 -19 9 C-18.59523438 8.51789063 -18.19046875 8.03578125 -17.7734375 7.5390625 C-15.61447804 5.66542808 -14.44365899 5.55777993 -11.625 5.375 C-8.34558063 5.11286044 -5.2166269 4.72633511 -2 4 C-2 3.34 -2 2.68 -2 2 C-1.34 2 -0.68 2 0 2 C0 1.34 0 0.68 0 0 Z " fill="#58BA9B" transform="translate(338,295)"/>
<path d="M0 0 C0 0.99 0 1.98 0 3 C-1.32 3 -2.64 3 -4 3 C-4 3.99 -4 4.98 -4 6 C-17.75740952 12.28055652 -31.0447894 14.21558676 -46 12 C-46 11.67 -46 11.34 -46 11 C-33.625 10.505 -33.625 10.505 -21 10 C-21 9.01 -21 8.02 -21 7 C-18.04335481 5.5216774 -15.25770263 5.93967217 -12 6 C-12 5.34 -12 4.68 -12 4 C-9.69 4 -7.38 4 -5 4 C-5 3.01 -5 2.02 -5 1 C-3 0 -3 0 0 0 Z " fill="#045BDC" transform="translate(315,370)"/>
<path d="M0 0 C2.00197715 2.00197715 2.94891921 3.63559875 4.25 6.125 C6.7653596 10.75776679 9.72955222 14.87541466 13 19 C12.34 19 11.68 19 11 19 C10.67 19.99 10.34 20.98 10 22 C9.67 21.34 9.34 20.68 9 20 C8.01 20 7.02 20 6 20 C5.67 21.65 5.34 23.3 5 25 C4.01 25 3.02 25 2 25 C2.0721875 24.43152344 2.144375 23.86304688 2.21875 23.27734375 C2.79583101 18.47635032 3.10285838 13.83434373 3 9 C2.34 9 1.68 9 1 9 C0.67 6.03 0.34 3.06 0 0 Z " fill="#0A54DD" transform="translate(314,345)"/>
<path d="M0 0 C2.33944736 0.28730055 4.6739143 0.61936779 7 1 C7 1.66 7 2.32 7 3 C7.99 3.33 8.98 3.66 10 4 C9.01 4.33 8.02 4.66 7 5 C6.67 5.99 6.34 6.98 6 8 C4.02 8 2.04 8 0 8 C0 8.66 0 9.32 0 10 C-1.28745036 10.38922918 -2.58019597 10.76098036 -3.875 11.125 C-4.95394531 11.43824219 -4.95394531 11.43824219 -6.0546875 11.7578125 C-6.69664062 11.83773438 -7.33859375 11.91765625 -8 12 C-8.66 11.34 -9.32 10.68 -10 10 C-8.68 9.67 -7.36 9.34 -6 9 C-6 8.01 -6 7.02 -6 6 C-3.5625 3.375 -3.5625 3.375 -1 1 C-0.67 0.67 -0.34 0.34 0 0 Z " fill="#3ACCB2" transform="translate(404,346)"/>
<path d="M0 0 C3.25543229 0.34879632 4.01873107 1.02133261 6.25 3.5625 C6.8275 4.366875 7.405 5.17125 8 6 C7.01 6 6.02 6 5 6 C4.896875 6.598125 4.79375 7.19625 4.6875 7.8125 C3.90175967 10.31258286 3.03081147 11.37535082 1 13 C0.34 13 -0.32 13 -1 13 C-1 13.66 -1 14.32 -1 15 C-2.98 15.66 -4.96 16.32 -7 17 C-7 17.99 -7 18.98 -7 20 C-9.73905345 21.36952673 -11.97087332 21.12621361 -15 21 C-15.66 20.67 -16.32 20.34 -17 20 C-17 19.34 -17 18.68 -17 18 C-16.40832031 17.89042969 -15.81664062 17.78085937 -15.20703125 17.66796875 C-10.62074201 16.74771822 -6.81785484 15.86339113 -3 13 C-2.67 12.34 -2.34 11.68 -2 11 C-1.34 11 -0.68 11 0 11 C-0.185625 9.9275 -0.37125 8.855 -0.5625 7.75 C-0.9304568 4.59608454 -1.04465343 2.90181508 0 0 Z " fill="#2A8ACB" transform="translate(317,269)"/>
<path d="M0 0 C1.39025391 -0.02126953 1.39025391 -0.02126953 2.80859375 -0.04296875 C5.74083373 0.20242438 7.90111389 0.96548423 10.5625 2.1875 C6.82954671 3.41310622 3.39621926 3.14907974 -0.5 3 C-11.62703046 2.82466497 -19.62690582 6.66113394 -28.4375 13.1875 C-28.7675 12.1975 -29.0975 11.2075 -29.4375 10.1875 C-30.0975 9.5275 -30.7575 8.8675 -31.4375 8.1875 C-27.9725 7.6925 -27.9725 7.6925 -24.4375 7.1875 C-25.0975 6.8575 -25.7575 6.5275 -26.4375 6.1875 C-26.4375 5.5275 -26.4375 4.8675 -26.4375 4.1875 C-25.25671875 3.98253906 -24.0759375 3.77757812 -22.859375 3.56640625 C-21.30207003 3.29434695 -19.7447791 3.02220732 -18.1875 2.75 C-17.41019531 2.61529297 -16.63289063 2.48058594 -15.83203125 2.34179688 C-15.07792969 2.20966797 -14.32382812 2.07753906 -13.546875 1.94140625 C-12.85561523 1.82095947 -12.16435547 1.7005127 -11.45214844 1.57641602 C-10.07404318 1.31038091 -8.7040571 0.99945527 -7.34448242 0.65087891 C-4.86752972 0.04900255 -2.54684047 0.01766186 0 0 Z " fill="#2B89BE" transform="translate(283.4375,281.8125)"/>
<path d="M0 0 C0 2.31 0 4.62 0 7 C0.639375 7.103125 1.27875 7.20625 1.9375 7.3125 C2.618125 7.539375 3.29875 7.76625 4 8 C4.33 8.99 4.66 9.98 5 11 C7.09719872 12.02281518 7.09719872 12.02281518 9.5625 12.6875 C10.38878906 12.93886719 11.21507812 13.19023437 12.06640625 13.44921875 C12.70449219 13.63097656 13.34257812 13.81273437 14 14 C14 15.32 14 16.64 14 18 C13.43023437 17.71125 12.86046875 17.4225 12.2734375 17.125 C3.65207558 12.85875905 -4.42737915 11.04829854 -14 10 C-10.55549263 7.70366176 -8.06187717 7.45983515 -4 7 C-4.33 6.34 -4.66 5.68 -5 5 C-4.01 5 -3.02 5 -2 5 C-2.66 3.68 -3.32 2.36 -4 1 C-1 0 -1 0 0 0 Z " fill="#72C983" transform="translate(384,273)"/>
<path d="M0 0 C0.66 0.33 1.32 0.66 2 1 C1.3046875 2.921875 1.3046875 2.921875 0 5 C-2.2421875 5.828125 -2.2421875 5.828125 -4.875 6.25 C-5.73867188 6.39953125 -6.60234375 6.5490625 -7.4921875 6.703125 C-10 7 -10 7 -14 7 C-14 7.99 -14 8.98 -14 10 C-16.64 9.34 -19.28 8.68 -22 8 C-22 8.66 -22 9.32 -22 10 C-24.64 10 -27.28 10 -30 10 C-30.33 9.01 -30.66 8.02 -31 7 C-30.01 7 -29.02 7 -28 7 C-28 6.34 -28 5.68 -28 5 C-27.06800781 5.05800781 -26.13601563 5.11601562 -25.17578125 5.17578125 C-16.60727742 5.47901445 -10.47959216 4.61250862 -2.51171875 0.99609375 C-1.68285156 0.66738281 -0.85398437 0.33867187 0 0 Z " fill="#0562F0" transform="translate(302,353)"/>
<path d="M0 0 C0 0.66 0 1.32 0 2 C-0.69867188 2.33773438 -1.39734375 2.67546875 -2.1171875 3.0234375 C-3.02726562 3.46945312 -3.93734375 3.91546875 -4.875 4.375 C-5.77992188 4.81585938 -6.68484375 5.25671875 -7.6171875 5.7109375 C-10.09534472 6.90502699 -10.09534472 6.90502699 -12 9 C-14.5 9.75 -14.5 9.75 -17 10 C-19 8 -19 8 -19.125 5.375 C-19.08375 4.59125 -19.0425 3.8075 -19 3 C-12.47059106 0.04328652 -7.12600133 -0.35368021 0 0 Z " fill="#3E99BA" transform="translate(330,329)"/>
<path d="M0 0 C3.31171389 1.42243218 5.2285261 3.14578543 7.625 5.8125 C11.86030372 10.19963536 16.43324231 12.62728361 22 15 C18.04158091 16.20808894 15.84131602 15.58663053 12 14 C11.34 13.34 10.68 12.68 10 12 C7.68234271 11.28072705 5.34904126 10.6090107 3 10 C3 9.34 3 8.68 3 8 C2.34 8 1.68 8 1 8 C-0.35439668 5.29120665 -0.06501451 2.99066732 0 0 Z " fill="#0559E3" transform="translate(251,342)"/>
<path d="M0 0 C1 3 1 3 0.07421875 5.0078125 C-0.38339844 5.70648438 -0.84101563 6.40515625 -1.3125 7.125 C-1.76238281 7.82882812 -2.21226562 8.53265625 -2.67578125 9.2578125 C-4 11 -4 11 -6 12 C-6.33 12.99 -6.66 13.98 -7 15 C-7.99 15 -8.98 15 -10 15 C-10.28875 15.61875 -10.5775 16.2375 -10.875 16.875 C-12 19 -12 19 -14 21 C-15 18 -15 18 -13.84765625 15.546875 C-9.88753022 9.3423887 -5.86823939 4.46595881 0 0 Z " fill="#2BA1ED" transform="translate(239,276)"/>
<path d="M0 0 C2.77865678 1.55875868 3.65788475 3.02033677 5.25 5.70703125 C7.98497444 9.31296481 11.92027515 11.80700427 15.5625 14.4375 C14.5725 15.0975 13.5825 15.7575 12.5625 16.4375 C9.9375 15.6875 9.9375 15.6875 7.5625 14.4375 C7.2325 13.7775 6.9025 13.1175 6.5625 12.4375 C6.8925 11.7775 7.2225 11.1175 7.5625 10.4375 C6.2425 10.7675 4.9225 11.0975 3.5625 11.4375 C2.9025 10.1175 2.2425 8.7975 1.5625 7.4375 C2.2225 7.1075 2.8825 6.7775 3.5625 6.4375 C2.9025 6.1075 2.2425 5.7775 1.5625 5.4375 C1.5625 4.7775 1.5625 4.1175 1.5625 3.4375 C-4.2349423 3.19321657 -4.2349423 3.19321657 -9.4375 5.4375 C-4.60416667 -1.0625 -4.60416667 -1.0625 0 0 Z " fill="#4CC4AE" transform="translate(409.4375,343.5625)"/>
<path d="M0 0 C0.33 1.98 0.66 3.96 1 6 C1.66 6 2.32 6 3 6 C3.22304441 7.74818591 3.4278645 9.49870323 3.625 11.25 C3.74101562 12.22453125 3.85703125 13.1990625 3.9765625 14.203125 C4.00112537 17.13429393 3.5312717 18.54528964 2 21 C1.34 21 0.68 21 0 21 C0.33 18.36 0.66 15.72 1 13 C0.360625 12.608125 -0.27875 12.21625 -0.9375 11.8125 C-3.43778819 9.61527704 -3.64950425 8.24208567 -4 5 C-6.94729537 3.84188612 -6.94729537 3.84188612 -10 4 C-6.74659338 1.32755885 -4.23938937 0 0 0 Z " fill="#0159EE" transform="translate(314,348)"/>
<path d="M0 0 C0.33 0.66 0.66 1.32 1 2 C-0.2739589 4.03833424 -1.61061923 6.03852126 -3 8 C-3.66 8 -4.32 8 -5 8 C-5 9.32 -5 10.64 -5 12 C-4.34 12.33 -3.68 12.66 -3 13 C-3 13.99 -3 14.98 -3 16 C-2.34 16.99 -1.68 17.98 -1 19 C-1.99 19.33 -2.98 19.66 -4 20 C-4 19.01 -4 18.02 -4 17 C-4.99 17 -5.98 17 -7 17 C-7 17.66 -7 18.32 -7 19 C-7.99 18.67 -8.98 18.34 -10 18 C-9.649375 16.9275 -9.29875 15.855 -8.9375 14.75 C-8.04240387 11.1696155 -8.05906264 10.29328075 -9 7 C-8.34 6.01 -7.68 5.02 -7 4 C-6.67 3.34 -6.34 2.68 -6 2 C-4.34178227 1.62690101 -2.67422986 1.29299023 -1 1 C-0.67 0.67 -0.34 0.34 0 0 Z " fill="#71CE9C" transform="translate(332,273)"/>
<path d="M0 0 C5.63820176 2.62213313 9.94613649 6.55624163 13.75 11.4375 C17.59822261 16.1478927 22.80957952 18.96147983 28 22 C25 23 25 23 22.375 22.25 C20 21 20 21 19 18 C17.88625 17.855625 16.7725 17.71125 15.625 17.5625 C12 17 12 17 10 16 C9.79375 14.989375 9.5875 13.97875 9.375 12.9375 C8.22289772 8.30028831 5.10102251 5.75503498 1.6796875 2.6015625 C1.12539063 2.07304687 0.57109375 1.54453125 0 1 C0 0.67 0 0.34 0 0 Z " fill="#38D3CB" transform="translate(332,333)"/>
<path d="M0 0 C1.73030291 0.28484846 3.45920714 0.57819938 5.1875 0.875 C6.15042969 1.03742188 7.11335938 1.19984375 8.10546875 1.3671875 C10.91032604 1.98039517 13.37224747 2.85666343 16 4 C16.25 6.25 16.25 6.25 16 9 C14 11.3125 14 11.3125 12 13 C9.74754119 10.31158141 8.11786042 8.35358125 7 5 C3.49705129 3.28432339 3.49705129 3.28432339 0 2 C0 1.34 0 0.68 0 0 Z " fill="#6ECB83" transform="translate(389,282)"/>
<path d="M0 0 C2 1 2 1 3.25 3.5 C4.82154642 6.32350588 4.82154642 6.32350588 8.1875 6.8125 C9.5796875 6.9053125 9.5796875 6.9053125 11 7 C7.54970958 9.30019361 6.05445642 9.43132515 2 9 C1.34 8.01 0.68 7.02 0 6 C-0.66 6 -1.32 6 -2 6 C-2 15.9 -2 25.8 -2 36 C-4.27184318 32.59223523 -4.24679414 31.37670738 -4.23046875 27.37890625 C-4.22853516 26.27869141 -4.22660156 25.17847656 -4.22460938 24.04492188 C-4.21236328 22.89572266 -4.20011719 21.74652344 -4.1875 20.5625 C-4.18685547 19.41716797 -4.18621094 18.27183594 -4.18554688 17.09179688 C-4.13666195 7.80909309 -4.13666195 7.80909309 -3 4 C-2.34 4 -1.68 4 -1 4 C-0.67 2.68 -0.34 1.36 0 0 Z " fill="#69B2AE" transform="translate(314,301)"/>
<path d="M0 0 C0.99 0 1.98 0 3 0 C3 0.99 3 1.98 3 3 C5.44496043 4.71711243 5.44496043 4.71711243 8 6 C8.33 5.34 8.66 4.68 9 4 C9.99 4.99 10.98 5.98 12 7 C8.50640535 10.59634744 4.88901869 13.83451967 1 17 C0.34 16.67 -0.32 16.34 -1 16 C-0.505 15.38125 -0.01 14.7625 0.5 14.125 C2.19222773 12.16119096 2.19222773 12.16119096 2 10 C3.32 10 4.64 10 6 10 C6.33 9.34 6.66 8.68 7 8 C5.35 7.67 3.7 7.34 2 7 C2 6.34 2 5.68 2 5 C1.01 4.67 0.02 4.34 -1 4 C-0.67 2.68 -0.34 1.36 0 0 Z " fill="#31CEAE" transform="translate(414,354)"/>
<path d="M0 0 C2.375 0.5625 2.375 0.5625 5 2 C6.3125 5.625 6.3125 5.625 7 9 C5.35 10.65 3.7 12.3 2 14 C1.34 13.67 0.68 13.34 0 13 C0 11.68 0 10.36 0 9 C-0.99 9 -1.98 9 -3 9 C-3 7.68 -3 6.36 -3 5 C-2.01 4.34 -1.02 3.68 0 3 C0 2.01 0 1.02 0 0 Z " fill="#59AD76" transform="translate(416,276)"/>
<path d="M0 0 C0 2.62113708 -0.31292445 4.50935112 -1 7 C-0.01 7 0.98 7 2 7 C2.99 7 3.98 7 5 7 C5 7.66 5 8.32 5 9 C4.34 9 3.68 9 3 9 C3 9.66 3 10.32 3 11 C1.41705218 11.05437607 -0.16644256 11.09296271 -1.75 11.125 C-2.63171875 11.14820313 -3.5134375 11.17140625 -4.421875 11.1953125 C-7.16398677 10.98757676 -8.6181007 10.30713986 -11 9 C-12.3242287 8.63215869 -13.65613912 8.28797019 -15 8 C-14.16855469 7.67386719 -13.33710938 7.34773438 -12.48046875 7.01171875 C-11.39378906 6.57472656 -10.30710937 6.13773437 -9.1875 5.6875 C-8.10855469 5.25824219 -7.02960938 4.82898438 -5.91796875 4.38671875 C-3.30855223 3.14663459 -1.82591016 2.18468549 0 0 Z " fill="#3DDAB8" transform="translate(399,349)"/>
<path d="M0 0 C0.92683594 0.00451172 1.85367188 0.00902344 2.80859375 0.01367188 C5.08079709 0.02538426 7.35286388 0.04178628 9.625 0.0625 C9.625 0.3925 9.625 0.7225 9.625 1.0625 C8.63487915 1.12981323 8.63487915 1.12981323 7.62475586 1.19848633 C4.60294848 1.41120758 1.58288163 1.64294406 -1.4375 1.875 C-2.47583984 1.94525391 -3.51417969 2.01550781 -4.58398438 2.08789062 C-10.55201597 2.56154393 -14.99588637 3.48052546 -20.375 6.0625 C-23.46484375 6.79296875 -23.46484375 6.79296875 -26.3125 7.25 C-27.74916016 7.48783203 -27.74916016 7.48783203 -29.21484375 7.73046875 C-29.92769531 7.84003906 -30.64054688 7.94960938 -31.375 8.0625 C-28.40241249 5.62023327 -25.61827468 4.22467335 -22 2.9375 C-21.08476562 2.60492188 -20.16953125 2.27234375 -19.2265625 1.9296875 C-12.79384352 -0.02656403 -6.66186419 -0.06177192 0 0 Z " fill="#67CAF7" transform="translate(282.375,257.9375)"/>
<path d="M0 0 C7.43616975 0.75622065 7.43616975 0.75622065 10.28125 1.98632812 C13.19651214 3.07326854 15.64143279 3.40096288 18.73828125 3.6328125 C19.80498047 3.71660156 20.87167969 3.80039062 21.97070312 3.88671875 C23.07349609 3.96535156 24.17628906 4.04398437 25.3125 4.125 C26.99569336 4.25455078 26.99569336 4.25455078 28.71289062 4.38671875 C31.47480318 4.5982695 34.23705711 4.80244275 37 5 C37 5.33 37 5.66 37 6 C23.66000471 7.61564591 12.41887722 6.12683108 0 1 C0 0.67 0 0.34 0 0 Z " fill="#4B70A4" transform="translate(256,378)"/>
<path d="M0 0 C1.04449911 3.13349732 0.93423645 3.98968256 0 7 C0.66 7.33 1.32 7.66 2 8 C2.66 8.66 3.32 9.32 4 10 C4 9.34 4 8.68 4 8 C4.99 8.33 5.98 8.66 7 9 C7 11.31 7 13.62 7 16 C7.66 16.33 8.32 16.66 9 17 C8.01 17 7.02 17 6 17 C4.02734375 15.0234375 4.02734375 15.0234375 1.9375 12.375 C0.89916016 11.08722656 0.89916016 11.08722656 -0.16015625 9.7734375 C-2.06406513 6.90342624 -3.06589451 4.30082872 -4 1 C-2.68 0.67 -1.36 0.34 0 0 Z " fill="#3D79E6" transform="translate(231,349)"/>
<path d="M0 0 C9.50427459 -0.61984399 17.31635075 2.56993502 25 8 C24.01 8.33 23.02 8.66 22 9 C21.34 8.67 20.68 8.34 20 8 C20 8.66 20 9.32 20 10 C18.68 9.67 17.36 9.34 16 9 C15.979375 8.401875 15.95875 7.80375 15.9375 7.1875 C15.09543384 4.56685398 15.09543384 4.56685398 11.4375 3.25 C10.303125 2.8375 9.16875 2.425 8 2 C8 2.66 8 3.32 8 4 C8.99 4.33 9.98 4.66 11 5 C9.35 4.67 7.7 4.34 6 4 C6 3.01 6 2.02 6 1 C4.02 1 2.04 1 0 1 C0 0.67 0 0.34 0 0 Z " fill="#93D8A7" transform="translate(382,258)"/>
<path d="M0 0 C2.64 0.33 5.28 0.66 8 1 C2.87554905 8.75988287 2.87554905 8.75988287 -2 11 C-2.66 11 -3.32 11 -4 11 C-4.33 10.01 -4.66 9.02 -5 8 C-4.01 8 -3.02 8 -2 8 C-2 7.01 -2 6.02 -2 5 C-1.01 5 -0.02 5 1 5 C1 4.34 1 3.68 1 3 C0.34 3 -0.32 3 -1 3 C-0.67 2.01 -0.34 1.02 0 0 Z " fill="#4BE2C3" transform="translate(409,365)"/>
<path d="M0 0 C2.45605371 2.55274874 2.98802939 3.85890643 3.29296875 7.453125 C3.24076172 9.33257812 3.24076172 9.33257812 3.1875 11.25 C3.14689453 13.14492188 3.14689453 13.14492188 3.10546875 15.078125 C3.07066406 16.04234375 3.03585937 17.0065625 3 18 C2.34 18.33 1.68 18.66 1 19 C-0.70082613 15.30255188 -1.24903019 12.43599253 -1.1875 8.375 C-1.18105469 7.43398438 -1.17460937 6.49296875 -1.16796875 5.5234375 C-1 3 -1 3 0 0 Z " fill="#1D88DA" transform="translate(339,310)"/>
<path d="M0 0 C0.61875 0.185625 1.2375 0.37125 1.875 0.5625 C4.04160178 1.23686176 4.04160178 1.23686176 6 0 C5.67 1.98 5.34 3.96 5 6 C6.32 6.33 7.64 6.66 9 7 C8.67 7.66 8.34 8.32 8 9 C6.35 8.34 4.7 7.68 3 7 C3 6.34 3 5.68 3 5 C-1.28297531 3.94380997 -5.42985646 3.88297908 -9.8125 3.9375 C-10.50537109 3.94201172 -11.19824219 3.94652344 -11.91210938 3.95117188 C-13.60811068 3.96286844 -15.30406703 3.98080076 -17 4 C-15 2 -15 2 -11.5234375 1.8046875 C-10.14049032 1.81798507 -8.75761346 1.84183768 -7.375 1.875 C-6.66859375 1.88402344 -5.9621875 1.89304687 -5.234375 1.90234375 C-3.48943902 1.92592397 -1.74467705 1.96179539 0 2 C0 1.34 0 0.68 0 0 Z " fill="#2DADEC" transform="translate(291,279)"/>
<path d="M0 0 C0 0.66 0 1.32 0 2 C-2.5 3.5 -2.5 3.5 -5 5 C-5 5.66 -5 6.32 -5 7 C-5.66 7 -6.32 7 -7 7 C-7 7.66 -7 8.32 -7 9 C-6.34 9 -5.68 9 -5 9 C-5 9.99 -5 10.98 -5 12 C-6.32 12 -7.64 12 -9 12 C-9.33 11.01 -9.66 10.02 -10 9 C-11.65 9.33 -13.3 9.66 -15 10 C-11.33829025 5.99500496 -5.76187936 0 0 0 Z " fill="#83D1A2" transform="translate(348,263)"/>
<path d="M0 0 C1.95825873 -0.02694851 3.91662226 -0.04637218 5.875 -0.0625 C6.96554687 -0.07410156 8.05609375 -0.08570313 9.1796875 -0.09765625 C12 0 12 0 14 1 C14 1.66 14 2.32 14 3 C15.65 3.33 17.3 3.66 19 4 C18.34 5.32 17.68 6.64 17 8 C14.03 7.505 14.03 7.505 11 7 C10.67 5.35 10.34 3.7 10 2 C6.7 2 3.4 2 0 2 C0 1.34 0 0.68 0 0 Z " fill="#2BEECD" transform="translate(322,346)"/>
<path d="M0 0 C1.125 3.75 1.125 3.75 0 6 C0.66 6 1.32 6 2 6 C2.33 5.34 2.66 4.68 3 4 C3 4.99 3 5.98 3 7 C2.01 7 1.02 7 0 7 C-1.12796398 10.60636233 -1.11416035 13.97144004 -1.09765625 17.734375 C-1.09443359 19.02988281 -1.09121094 20.32539063 -1.08789062 21.66015625 C-1.07953598 23.02343817 -1.07107104 24.38671942 -1.0625 25.75 C-1.05748168 27.12890465 -1.05291935 28.50781104 -1.04882812 29.88671875 C-1.03704093 33.25785659 -1.02058635 36.62890628 -1 40 C-4.08360855 34.83942495 -3.32869385 29.21126444 -3.3125 23.375 C-3.32861328 22.23675781 -3.34472656 21.09851563 -3.36132812 19.92578125 C-3.36543272 12.77558498 -2.51887876 6.7036675 0 0 Z " fill="#579EE7" transform="translate(223,297)"/>
<path d="M0 0 C0.66 0.33 1.32 0.66 2 1 C1.31164062 1.87011719 1.31164062 1.87011719 0.609375 2.7578125 C-2.77869815 7.07119974 -6.03970201 11.38193513 -9 16 C-10.65 15.67 -12.3 15.34 -14 15 C-9.59156563 9.70987876 -4.92440206 4.81191572 0 0 Z " fill="#30817E" transform="translate(324,277)"/>
<path d="M0 0 C1.65 0 3.3 0 5 0 C1.8230671 3.30930511 -1.59698894 6.26233231 -5.09765625 9.21875 C-7.07806213 10.96231168 -7.07806213 10.96231168 -8.62109375 13.21875 C-9.07613281 13.8065625 -9.53117187 14.394375 -10 15 C-10.66 15 -11.32 15 -12 15 C-12.33 14.01 -12.66 13.02 -13 12 C-12.01 12 -11.02 12 -10 12 C-9.896875 11.401875 -9.79375 10.80375 -9.6875 10.1875 C-8.89496146 7.66578648 -8.08408591 6.60314301 -6 5 C-5.01 5 -4.02 5 -3 5 C-3 4.34 -3 3.68 -3 3 C-2.01 3 -1.02 3 0 3 C0 2.01 0 1.02 0 0 Z " fill="#4B866F" transform="translate(351,287)"/>
<path d="M0 0 C7.14148219 1.75168431 7.14148219 1.75168431 10 5 C11.64605826 6.03357147 13.30963442 7.04060332 15 8 C14.67 8.66 14.34 9.32 14 10 C12.35333797 9.8864371 10.70763918 9.75882619 9.0625 9.625 C8.14597656 9.55539062 7.22945313 9.48578125 6.28515625 9.4140625 C5.15400391 9.20910156 5.15400391 9.20910156 4 9 C3.67 8.34 3.34 7.68 3 7 C3.66 6.67 4.32 6.34 5 6 C4.33131686 2.88667752 4.33131686 2.88667752 1.9375 1.8125 C1.298125 1.544375 0.65875 1.27625 0 1 C0 0.67 0 0.34 0 0 Z " fill="#50F2CC" transform="translate(341,368)"/>
<path d="M0 0 C0 0.33 0 0.66 0 1 C-0.54527344 1.10957031 -1.09054687 1.21914063 -1.65234375 1.33203125 C-5.79213232 2.20244833 -9.76029335 3.21016285 -13.75 4.625 C-16.95269646 5.74117617 -19.56890601 6.33204135 -23 6 C-22.34 5.67 -21.68 5.34 -21 5 C-21 4.34 -21 3.68 -21 3 C-19.02 3 -17.04 3 -15 3 C-15 2.34 -15 1.68 -15 1 C-9.4584498 -0.96263236 -5.79141983 -1.01603857 0 0 Z " fill="#6DC084" transform="translate(379,280)"/>
<path d="M0 0 C2.00197715 2.00197715 2.94891921 3.63559875 4.25 6.125 C6.7653596 10.75776679 9.72955222 14.87541466 13 19 C9.66670261 17.82884146 7.13594373 16.88352404 5 14 C4.3125 11.3125 4.3125 11.3125 4 9 C3.01 9 2.02 9 1 9 C0.67 6.03 0.34 3.06 0 0 Z " fill="#05479D" transform="translate(314,345)"/>
<path d="M0 0 C1.98 0 3.96 0 6 0 C5.67 2.97 5.34 5.94 5 9 C5.66 9 6.32 9 7 9 C7 10.98 7 12.96 7 15 C4.10067643 12.60490662 3.49831724 10.68754757 3 7 C2.34 7 1.68 7 1 7 C0.67 4.69 0.34 2.38 0 0 Z " fill="#37D3D7" transform="translate(312,338)"/>
<path d="M0 0 C3.25543229 0.34879632 4.01873107 1.02133261 6.25 3.5625 C7.11625 4.7690625 7.11625 4.7690625 8 6 C7.01 6 6.02 6 5 6 C5 6.66 5 7.32 5 8 C3.35 8.66 1.7 9.32 0 10 C-0.74926071 6.33694766 -1.2380014 3.57644848 0 0 Z " fill="#21A0D5" transform="translate(317,269)"/>
<path d="M0 0 C0.99 0.99 1.98 1.98 3 3 C2.649375 3.78375 2.29875 4.5675 1.9375 5.375 C1.628125 6.24125 1.31875 7.1075 1 8 C1.33 8.66 1.66 9.32 2 10 C1.34 10 0.68 10 0 10 C0.33 10.99 0.66 11.98 1 13 C0.01 13.33 -0.98 13.66 -2 14 C-3 10.125 -3 10.125 -3 9 C-3.66 8.67 -4.32 8.34 -5 8 C-3.35 5.36 -1.7 2.72 0 0 Z " fill="#66C89E" transform="translate(322,281)"/>
<path d="M0 0 C3.125 0.375 3.125 0.375 6 1 C3.37362001 4.69638666 1.47259441 6.8818514 -3 8 C-5.3125 7.625 -5.3125 7.625 -7 7 C-4.66666667 4.66666667 -2.33333333 2.33333333 0 0 Z " fill="#3EBBB4" transform="translate(404,346)"/>
<path d="M0 0 C2.64 0.66 5.28 1.32 8 2 C8.33 3.32 8.66 4.64 9 6 C10.65 6 12.3 6 14 6 C14 6.66 14 7.32 14 8 C14.99 8 15.98 8 17 8 C17 8.99 17 9.98 17 11 C12.34660754 9.68130867 8.99307377 7.82545209 5.125 4.9375 C4.15820312 4.22464844 3.19140625 3.51179688 2.1953125 2.77734375 C1.47085938 2.19082031 0.74640625 1.60429687 0 1 C0 0.67 0 0.34 0 0 Z " fill="#5483DB" transform="translate(239,367)"/>
<path d="M0 0 C5.75 -0.125 5.75 -0.125 8 1 C8.28875 1.598125 8.5775 2.19625 8.875 2.8125 C10.19965085 5.38820998 11.89415861 7.03454804 14 9 C10.20246301 9 8.93581015 7.81129297 5.875 5.625 C4.98554688 4.99851562 4.09609375 4.37203125 3.1796875 3.7265625 C1 2 1 2 0 0 Z " fill="#93EED4" transform="translate(331,367)"/>
<path d="M0 0 C0.66 0.33 1.32 0.66 2 1 C2.33608711 9.05364285 2.0517291 15.49783264 -1 23 C-1.33 23 -1.66 23 -2 23 C-2 20.03 -2 17.06 -2 14 C-1.67 14 -1.34 14 -1 14 C-0.67 9.38 -0.34 4.76 0 0 Z " fill="#366195" transform="translate(343,318)"/>
<path d="M0 0 C3.63 0.66 7.26 1.32 11 2 C11 2.33 11 2.66 11 3 C4.65176798 5.30844801 -1.29481414 5.19818283 -8 5 C-8.33 3.68 -8.66 2.36 -9 1 C-3.555 2.485 -3.555 2.485 2 4 C2 3.01 2 2.02 2 1 C1.34 0.67 0.68 0.34 0 0 Z " fill="#4BEAC8" transform="translate(360,356)"/>
<path d="M0 0 C0.66 0.33 1.32 0.66 2 1 C1.42424336 4.35250701 0.40693737 5.93818629 -2.0625 8.25 C-2.61035156 8.77078125 -3.15820312 9.2915625 -3.72265625 9.828125 C-4.14417969 10.21484375 -4.56570313 10.6015625 -5 11 C-6.32 10.34 -7.64 9.68 -9 9 C-8.0409375 8.5978125 -8.0409375 8.5978125 -7.0625 8.1875 C-4.66868314 7.11332248 -4.66868314 7.11332248 -4 4 C-3.34 4 -2.68 4 -2 4 C-1.34 2.68 -0.68 1.36 0 0 Z " fill="#539C7E" transform="translate(413,288)"/>
<path d="M0 0 C0.66 0.33 1.32 0.66 2 1 C1.67 1.99 1.34 2.98 1 4 C0.34 4 -0.32 4 -1 4 C-1.23460937 4.62390625 -1.46921875 5.2478125 -1.7109375 5.890625 C-3.36823075 8.60255941 -4.6141599 8.88975997 -7.625 9.75 C-8.85089844 10.11351562 -8.85089844 10.11351562 -10.1015625 10.484375 C-11.04128906 10.73960937 -11.04128906 10.73960937 -12 11 C-10 8 -10 8 -7 7 C-5.30911778 5.02043058 -3.64169528 3.02054804 -2 1 C-1.34 0.67 -0.68 0.34 0 0 Z " fill="#2194E4" transform="translate(316,276)"/>
<path d="M0 0 C1.32 0.33 2.64 0.66 4 1 C3.67 1.99 3.34 2.98 3 4 C1.35 4.33 -0.3 4.66 -2 5 C-2.33 5.99 -2.66 6.98 -3 8 C-5.5625 9.1875 -5.5625 9.1875 -8 10 C-7.67 8.35 -7.34 6.7 -7 5 C-5.35 4.67 -3.7 4.34 -2 4 C-2 3.34 -2 2.68 -2 2 C-1.34 2 -0.68 2 0 2 C0 1.34 0 0.68 0 0 Z " fill="#52B892" transform="translate(338,295)"/>
<path d="M0 0 C2.0625 0.4375 2.0625 0.4375 4 1 C3.04416032 2.93873142 2.08523808 4.8759433 1.125 6.8125 C0.59132812 7.89144531 0.05765625 8.97039062 -0.4921875 10.08203125 C-2 13 -2 13 -4 16 C-4 13.36 -4 10.72 -4 8 C-3.34 8 -2.68 8 -2 8 C-1.855625 6.865625 -1.71125 5.73125 -1.5625 4.5625 C-1 1 -1 1 0 0 Z " fill="#237FC1" transform="translate(251,295)"/>
<path d="M0 0 C3.67762938 2.15275866 4.67054544 4.71609089 6.5625 8.5 C4.5625 8.5 4.5625 8.5 2.9375 7.125 C1.5625 5.5 1.5625 5.5 1.5625 3.5 C-4.2349423 3.25571657 -4.2349423 3.25571657 -9.4375 5.5 C-4.64000998 -0.95179692 -4.64000998 -0.95179692 0 0 Z " fill="#92CFCC" transform="translate(409.4375,343.5)"/>
<path d="M0 0 C-0.33 0.99 -0.66 1.98 -1 3 C-3.31 3.33 -5.62 3.66 -8 4 C-8.433125 5.2065625 -8.433125 5.2065625 -8.875 6.4375 C-10 9 -10 9 -12 10 C-12 9.34 -12 8.68 -12 8 C-13.32 8.33 -14.64 8.66 -16 9 C-7 0 -7 0 0 0 Z " fill="#34A6EE" transform="translate(258,264)"/>
<path d="M0 0 C-1.38081223 4.1424367 -3.59825558 5.32203099 -7 8 C-6.67 6.35 -6.34 4.7 -6 3 C-8.31 3.33 -10.62 3.66 -13 4 C-9.38656695 0.38656695 -4.97659681 -0.29274099 0 0 Z " fill="#97DBAA" transform="translate(361,259)"/>
<path d="M0 0 C0 0.66 0 1.32 0 2 C-0.99 2 -1.98 2 -3 2 C-3 2.66 -3 3.32 -3 4 C-6.36683915 6.43160605 -7.73350364 7 -12 7 C-9.87654283 1.40179474 -5.8147806 -0.49840977 0 0 Z " fill="#5BBD84" transform="translate(351,288)"/>
<path d="M0 0 C0.66 0.33 1.32 0.66 2 1 C1.25 2.9375 1.25 2.9375 0 5 C-2.93482964 6.02976479 -5.66039672 6.10793534 -8.75 6.0625 C-9.54921875 6.05347656 -10.3484375 6.04445313 -11.171875 6.03515625 C-11.77515625 6.02355469 -12.3784375 6.01195312 -13 6 C-10.14491782 4.559422 -7.27682755 3.15665758 -4.375 1.8125 C-3.59898437 1.44769531 -2.82296875 1.08289063 -2.0234375 0.70703125 C-1.35570312 0.47371094 -0.68796875 0.24039062 0 0 Z " fill="#3B88EE" transform="translate(302,353)"/>
<path d="M0 0 C-1.04800781 0.50660156 -1.04800781 0.50660156 -2.1171875 1.0234375 C-3.02726562 1.46945312 -3.93734375 1.91546875 -4.875 2.375 C-5.77992188 2.81585938 -6.68484375 3.25671875 -7.6171875 3.7109375 C-10.09534472 4.90502699 -10.09534472 4.90502699 -12 7 C-14.125 6.625 -14.125 6.625 -16 6 C-15.34 6 -14.68 6 -14 6 C-14 5.34 -14 4.68 -14 4 C-13.34 3.67 -12.68 3.34 -12 3 C-12 2.34 -12 1.68 -12 1 C-3.96428571 -1.27678571 -3.96428571 -1.27678571 0 0 Z " fill="#33A8BA" transform="translate(330,331)"/>
<path d="M0 0 C2.67677955 5.08041833 3.48875222 9.37582495 2 15 C2.66 15 3.32 15 4 15 C3.67 16.98 3.34 18.96 3 21 C-1.01188677 14.98216984 -0.11144923 7.02130175 0 0 Z " fill="#2180F2" transform="translate(221,322)"/>
<path d="M0 0 C0.66 0.33 1.32 0.66 2 1 C-1.49359465 4.59634744 -5.11098131 7.83451967 -9 11 C-9.66 10.67 -10.32 10.34 -11 10 C-10.505 9.38125 -10.01 8.7625 -9.5 8.125 C-7.80777227 6.16119096 -7.80777227 6.16119096 -8 4 C-7.236875 3.896875 -6.47375 3.79375 -5.6875 3.6875 C-2.82940576 2.95635961 -1.84257115 2.23048087 0 0 Z " fill="#40978A" transform="translate(424,360)"/>
<path d="M0 0 C0 2.62113708 -0.31292445 4.50935112 -1 7 C-2.58086048 7.36504603 -4.16483907 7.71660506 -5.75 8.0625 C-6.63171875 8.25972656 -7.5134375 8.45695312 -8.421875 8.66015625 C-10.98679028 8.99825872 -12.57091639 8.81158635 -15 8 C-14.16855469 7.67386719 -13.33710938 7.34773438 -12.48046875 7.01171875 C-11.39378906 6.57472656 -10.30710937 6.13773437 -9.1875 5.6875 C-8.10855469 5.25824219 -7.02960938 4.82898438 -5.91796875 4.38671875 C-3.30855223 3.14663459 -1.82591016 2.18468549 0 0 Z " fill="#81DDCF" transform="translate(399,349)"/>
<path d="M0 0 C-0.25 2.375 -0.25 2.375 -1 5 C-3.0625 6.3125 -3.0625 6.3125 -5 7 C-5 6.34 -5 5.68 -5 5 C-5.66 5 -6.32 5 -7 5 C-7 4.34 -7 3.68 -7 3 C-6.34 3 -5.68 3 -5 3 C-5.33 2.01 -5.66 1.02 -6 0 C-3 -1 -3 -1 0 0 Z " fill="#64C48B" transform="translate(348,267)"/>
<path d="M0 0 C4.50802601 1.25805377 7.4912812 2.90407165 11 6 C9.68 6 8.36 6 7 6 C5.2488427 7.4166747 5.2488427 7.4166747 4 9 C4 7.35 4 5.7 4 4 C3.34 4 2.68 4 2 4 C2 3.34 2 2.68 2 2 C1.34 2 0.68 2 0 2 C0 1.34 0 0.68 0 0 Z " fill="#52B6E6" transform="translate(307,263)"/>
<path d="M0 0 C4.29 2.31 8.58 4.62 13 7 C8.53826537 8.11543366 7.10768085 7.83534676 3 6 C0 2.8 0 2.8 0 0 Z " fill="#3F7ADF" transform="translate(260,350)"/>
<path d="M0 0 C0.66 0.33 1.32 0.66 2 1 C1.34 2.65 0.68 4.3 0 6 C-1.32 6 -2.64 6 -4 6 C-4 7.65 -4 9.3 -4 11 C-4.66 10.67 -5.32 10.34 -6 10 C-5.72510809 5.96825194 -5.46508424 4.43105369 -2.4375 1.625 C-1.633125 1.08875 -0.82875 0.5525 0 0 Z " fill="#24D7D0" transform="translate(323,333)"/>
<path d="M0 0 C7.88264059 0.75794621 7.88264059 0.75794621 11 4 C11 4.99 11 5.98 11 7 C10.484375 6.731875 9.96875 6.46375 9.4375 6.1875 C6.33598585 4.67650593 3.17737194 3.34427274 0 2 C0 1.34 0 0.68 0 0 Z " fill="#92D2A8" transform="translate(387,284)"/>
<path d="M0 0 C0.90105469 0.01804687 1.80210937 0.03609375 2.73046875 0.0546875 C3.41753906 0.07789063 4.10460937 0.10109375 4.8125 0.125 C5.4725 1.445 6.1325 2.765 6.8125 4.125 C-0.6125 3.135 -0.6125 3.135 -8.1875 2.125 C-4.87379 -0.08414 -3.8428979 -0.09981553 0 0 Z " fill="#9EC5AD" transform="translate(378.1875,280.875)"/>
<path d="M0 0 C2.375 0.5625 2.375 0.5625 5 2 C6.3125 5.625 6.3125 5.625 7 9 C6.01 9 5.02 9 4 9 C3.731875 8.030625 3.46375 7.06125 3.1875 6.0625 C2.795625 5.051875 2.40375 4.04125 2 3 C1.01 2.67 0.02 2.34 -1 2 C-0.67 1.34 -0.34 0.68 0 0 Z " fill="#47A56A" transform="translate(416,276)"/>
<path d="M0 0 C0 0.33 0 0.66 0 1 C-4.455 1.495 -4.455 1.495 -9 2 C-9 2.33 -9 2.66 -9 3 C-13.16138263 3.08159574 -16.9472484 2.98248524 -21 2 C-21 1.67 -21 1.34 -21 1 C-14.03220597 -0.32719886 -7.07011089 -0.08825381 0 0 Z " fill="#BAE4C4" transform="translate(382,257)"/>
<path d="M0 0 C5.75 0.75 5.75 0.75 8 3 C6.68 4.32 5.36 5.64 4 7 C0 2.25 0 2.25 0 0 Z " fill="#7DCE97" transform="translate(397,288)"/>
<path d="M0 0 C1.60407328 -0.02708567 3.2082785 -0.04643483 4.8125 -0.0625 C5.70582031 -0.07410156 6.59914063 -0.08570313 7.51953125 -0.09765625 C10 0 10 0 13 1 C13.33 1.99 13.66 2.98 14 4 C12.4156683 3.91231752 10.83246433 3.80412671 9.25 3.6875 C7.92742187 3.60048828 7.92742187 3.60048828 6.578125 3.51171875 C3.67696226 2.9358819 2.20774393 1.92403852 0 0 Z " fill="#77ECD0" transform="translate(345,377)"/>
<path d="M0 0 C1.65 0 3.3 0 5 0 C5 0.99 5 1.98 5 3 C0.77777778 6 0.77777778 6 -2 6 C-2.33 5.01 -2.66 4.02 -3 3 C-2.01 3 -1.02 3 0 3 C0 2.01 0 1.02 0 0 Z " fill="#47BAA2" transform="translate(407,370)"/>
<path d="M0 0 C5.75 3.75 5.75 3.75 8 6 C7.625 8.625 7.625 8.625 7 11 C5.10786631 8.61426621 3.97608217 6.92824652 3 4 C2.01 4 1.02 4 0 4 C0 2.68 0 1.36 0 0 Z " fill="#86BB9E" transform="translate(417,274)"/>
<path d="M0 0 C1.32 0 2.64 0 4 0 C7 3.21428571 7 3.21428571 7 6 C3.62537285 5.45276317 1.91765 4.9451 -1 3 C-0.67 2.01 -0.34 1.02 0 0 Z " fill="#6FDFCC" transform="translate(326,361)"/>
<path d="M0 0 C1.67830848 3.35661695 0.6353188 6.36135594 0 10 C-0.99 10.495 -0.99 10.495 -2 11 C-2.66 11.99 -3.32 12.98 -4 14 C-2.63636364 2.63636364 -2.63636364 2.63636364 0 0 Z " fill="#8BCABD" transform="translate(316,291)"/>
<path d="M0 0 C0.33 1.98 0.66 3.96 1 6 C0.01 6.495 0.01 6.495 -1 7 C-1.66 6.01 -2.32 5.02 -3 4 C-3.99 3.67 -4.98 3.34 -6 3 C-6 3.66 -6 4.32 -6 5 C-6.99 4.67 -7.98 4.34 -9 4 C-8.34 4 -7.68 4 -7 4 C-7 3.34 -7 2.68 -7 2 C-4.35261084 0.5393715 -3.10551666 0 0 0 Z " fill="#67BC86" transform="translate(416,285)"/>
<path d="M0 0 C4.43458973 1.3937282 6.87378374 3.60582235 10 7 C9.01 7.495 9.01 7.495 8 8 C8 7.34 8 6.68 8 6 C7.01 6 6.02 6 5 6 C4.67 5.34 4.34 4.68 4 4 C3.01 4.33 2.02 4.66 1 5 C0.67 3.35 0.34 1.7 0 0 Z " fill="#8ED1A4" transform="translate(407,267)"/>
<path d="M0 0 C0.66 0 1.32 0 2 0 C2 0.66 2 1.32 2 2 C3.32 1.67 4.64 1.34 6 1 C7 4 7 4 6 7 C6.66 7.33 7.32 7.66 8 8 C7.01 8 6.02 8 5 8 C3.61328125 6.50390625 3.61328125 6.50390625 2.3125 4.5625 C1.87550781 3.92441406 1.43851562 3.28632813 0.98828125 2.62890625 C0 1 0 1 0 0 Z " fill="#48E1D6" transform="translate(319,353)"/>
<path d="M0 0 C4.71403788 0.47939368 8.66579301 0.96834048 13 3 C13 3.66 13 4.32 13 5 C3.40546697 3.25740319 3.40546697 3.25740319 0 0 Z " fill="#3969C0" transform="translate(256,378)"/>
<path d="M0 0 C-8.42857143 3.42857143 -8.42857143 3.42857143 -13 3 C-12.34 2.67 -11.68 2.34 -11 2 C-11 1.34 -11 0.68 -11 0 C-3.375 -1.125 -3.375 -1.125 0 0 Z " fill="#5A9171" transform="translate(369,283)"/>
<path d="M0 0 C0.99 0 1.98 0 3 0 C1.34908222 4.29238623 -1.73754566 6.8793915 -5 10 C-5.99 9.67 -6.98 9.34 -8 9 C-7.34 9 -6.68 9 -6 9 C-6 8.34 -6 7.68 -6 7 C-4.7934375 6.0409375 -4.7934375 6.0409375 -3.5625 5.0625 C-0.76279268 3.18964068 -0.76279268 3.18964068 0 0 Z " fill="#2888A4" transform="translate(322,275)"/>
<path d="M0 0 C2.00993705 2.00993705 2.89940919 3.59211232 4.125 6.125 C4.47820312 6.84945313 4.83140625 7.57390625 5.1953125 8.3203125 C5.46085937 8.87460937 5.72640625 9.42890625 6 10 C4.35 9.67 2.7 9.34 1 9 C0.67 6.03 0.34 3.06 0 0 Z " fill="#0659B4" transform="translate(314,345)"/>
<path d="M0 0 C1 4 1 4 0 6 C0.66 6 1.32 6 2 6 C2.33 5.34 2.66 4.68 3 4 C3 4.99 3 5.98 3 7 C2.01 7 1.02 7 0 7 C-0.12375 7.639375 -0.2475 8.27875 -0.375 8.9375 C-0.58125 9.618125 -0.7875 10.29875 -1 11 C-1.99 11.495 -1.99 11.495 -3 12 C-2.01 8.04 -1.02 4.08 0 0 Z " fill="#65B2F0" transform="translate(223,297)"/>
<path d="M0 0 C0.75 1.6875 0.75 1.6875 1 4 C-0.8125 6.75 -0.8125 6.75 -3 9 C-3.66 9 -4.32 9 -5 9 C-5.33 8.01 -5.66 7.02 -6 6 C-5.01 6 -4.02 6 -3 6 C-2.87625 5.38125 -2.7525 4.7625 -2.625 4.125 C-2 2 -2 2 0 0 Z " fill="#459382" transform="translate(344,293)"/>
<path d="M0 0 C3.36720387 1.39332574 4.9859524 2.9789286 7 6 C6.01 6 5.02 6 4 6 C3.67 6.66 3.34 7.32 3 8 C2.34 7.67 1.68 7.34 1 7 C1.020625 6.21625 1.04125 5.4325 1.0625 4.625 C1.18684063 2.01885039 1.18684063 2.01885039 0 0 Z " fill="#4EA7C6" transform="translate(318,269)"/>
<path d="M0 0 C0.99 0 1.98 0 3 0 C3 0.66 3 1.32 3 2 C-2.12919186 4.10428384 -6.5610835 4.21755666 -12 4 C-12 3.67 -12 3.34 -12 3 C-10.82630859 2.80083984 -10.82630859 2.80083984 -9.62890625 2.59765625 C-8.61699219 2.42105469 -7.60507812 2.24445313 -6.5625 2.0625 C-5.55316406 1.88847656 -4.54382813 1.71445312 -3.50390625 1.53515625 C-1.0712562 1.25248903 -1.0712562 1.25248903 0 0 Z " fill="#134C99" transform="translate(299,379)"/>
<path d="M0 0 C-1.32 1.32 -2.64 2.64 -4 4 C-4.99 3.67 -5.98 3.34 -7 3 C-7.99 3 -8.98 3 -10 3 C-3.94594595 -1.97297297 -3.94594595 -1.97297297 0 0 Z " fill="#3880EC" transform="translate(314,349)"/>
<path d="M0 0 C3.14958831 3.42346555 3.56179109 6.44262737 4 11 C2 9.4375 2 9.4375 0 7 C-0.25 3.25 -0.25 3.25 0 0 Z " fill="#0465E6" transform="translate(247,335)"/>
<path d="M0 0 C3.00617269 3.00617269 2.59585316 5.82381598 3 10 C0.40512445 8.70256222 -0.02269781 7.70637529 -1 5 C-0.625 2.25 -0.625 2.25 0 0 Z " fill="#5891CB" transform="translate(341,308)"/>
<path d="M0 0 C0 0.99 0 1.98 0 3 C-3.32534757 4.10844919 -5.62182575 3.84454356 -9 3 C-6.01800145 0.01800145 -4.21244839 0 0 0 Z " fill="#45EDCA" transform="translate(384,358)"/>
<path d="M0 0 C3.3 1.98 6.6 3.96 10 6 C7 7 7 7 4.4375 6.375 C2 5 2 5 0 0 Z " fill="#66DECA" transform="translate(350,349)"/>
<path d="M0 0 C1.32 0 2.64 0 4 0 C4 0.66 4 1.32 4 2 C4.99 2 5.98 2 7 2 C7 2.99 7 3.98 7 5 C4.0625 4.1875 4.0625 4.1875 1 3 C0.67 2.01 0.34 1.02 0 0 Z " fill="#2F6BD4" transform="translate(249,373)"/>
<path d="M0 0 C0.99 0.33 1.98 0.66 3 1 C3 2.65 3 4.3 3 6 C2.34 5.67 1.68 5.34 1 5 C0.01 6.32 -0.98 7.64 -2 9 C-1.34 6.03 -0.68 3.06 0 0 Z " fill="#57A2B6" transform="translate(338,301)"/>
<path d="M0 0 C0 3.57575896 -1.08840607 5.05295935 -3 8 C-4.32 7.67 -5.64 7.34 -7 7 C-4.69 4.69 -2.38 2.38 0 0 Z " fill="#236489" transform="translate(317,284)"/>
<path d="M0 0 C1 3 1 3 0 6 C-0.99 5.67 -1.98 5.34 -3 5 C-3.6875 2.9375 -3.6875 2.9375 -4 1 C-2.68 0.67 -1.36 0.34 0 0 Z " fill="#226CE8" transform="translate(231,349)"/>
<path d="M0 0 C0.66 0.33 1.32 0.66 2 1 C2 1.99 2 2.98 2 4 C2.66 4.33 3.32 4.66 4 5 C3.67 5.99 3.34 6.98 3 8 C2.34 7.67 1.68 7.34 1 7 C1 6.01 1 5.02 1 4 C0.34 4 -0.32 4 -1 4 C-0.67 2.68 -0.34 1.36 0 0 Z " fill="#61B683" transform="translate(417,280)"/>
<path d="M0 0 C2.3431213 0.25561323 4.67843403 0.59270772 7 1 C7.33 1.66 7.66 2.32 8 3 C6.02 3.33 4.04 3.66 2 4 C1.34 2.68 0.68 1.36 0 0 Z " fill="#54D2B8" transform="translate(411,351)"/>
<path d="M0 0 C1.17539996 0.92652701 2.34010577 1.86663387 3.5 2.8125 C4.1496875 3.33457031 4.799375 3.85664063 5.46875 4.39453125 C7 6 7 6 7 9 C0.70535714 4.17857143 0.70535714 4.17857143 0 0 Z " fill="#6186C1" transform="translate(252,342)"/>
<path d="M0 0 C1.65 0 3.3 0 5 0 C4.34 2.31 3.68 4.62 3 7 C2.34 7 1.68 7 1 7 C0.67 4.69 0.34 2.38 0 0 Z " fill="#69C6D3" transform="translate(312,338)"/>
<path d="M0 0 C-0.33 0.99 -0.66 1.98 -1 3 C-7.625 4 -7.625 4 -11 4 C-8.07317918 1.07317918 -4.14037627 0 0 0 Z " fill="#2EB3F4" transform="translate(258,264)"/>
<path d="M0 0 C0.66 0.33 1.32 0.66 2 1 C-0.3125 3.5 -0.3125 3.5 -3 6 C-3.99 6 -4.98 6 -6 6 C-4.02 4.02 -2.04 2.04 0 0 Z " fill="#325B55" transform="translate(424,360)"/>
<path d="M0 0 C0.33 2.31 0.66 4.62 1 7 C-0.98 5.35 -2.96 3.7 -5 2 C-1.125 0 -1.125 0 0 0 Z " fill="#2C9AD6" transform="translate(339,332)"/>
<path d="M0 0 C0.33 0.99 0.66 1.98 1 3 C-1.375 3.625 -1.375 3.625 -4 4 C-4.66 3.34 -5.32 2.68 -6 2 C-4.02 1.34 -2.04 0.68 0 0 Z " fill="#3492C7" transform="translate(336,329)"/>
<path d="M0 0 C1.32 0 2.64 0 4 0 C4 0.66 4 1.32 4 2 C3.01 2.66 2.02 3.32 1 4 C1.33 4.66 1.66 5.32 2 6 C1.01 5.67 0.02 5.34 -1 5 C-0.67 3.35 -0.34 1.7 0 0 Z " fill="#78C69B" transform="translate(404,293)"/>
<path d="M0 0 C1.32 0.99 2.64 1.98 4 3 C3.67 4.65 3.34 6.3 3 8 C2.34 8 1.68 8 1 8 C0.67 5.36 0.34 2.72 0 0 Z " fill="#1BA8E8" transform="translate(313,267)"/>
</svg>
